<?xml version="1.0" encoding="UTF-8" standalone="no"?>
<!DOCTYPE svg PUBLIC "-//W3C//DTD SVG 1.1//EN"
 "http://www.w3.org/Graphics/SVG/1.1/DTD/svg11.dtd">
<!-- Generated by graphviz version 12.2.1 (20241206.2353)
 -->
<!-- Pages: 1 -->
<svg width="1148pt" height="980pt"
 viewBox="0.00 0.00 1148.37 980.00" xmlns="http://www.w3.org/2000/svg" xmlns:xlink="http://www.w3.org/1999/xlink">
<g id="graph0" class="graph" transform="scale(1 1) rotate(0) translate(4 976)">
<polygon fill="white" stroke="none" points="-4,4 -4,-976 1144.37,-976 1144.37,4 -4,4"/>
<!-- ExportToSpreadsheet_219141ff -->
<g id="node1" class="node">
<title>ExportToSpreadsheet_219141ff</title>
<polygon fill="lightblue" stroke="black" points="194.25,-900 11.75,-900 11.75,-864 194.25,-864 194.25,-900"/>
<text text-anchor="middle" x="103" y="-876.2" font-family="Helvetica,sans-Serif" font-weight="bold" font-size="14.00">ExportToSpreadsheet #16</text>
</g>
<!-- GrayToColor_1c11976f -->
<g id="node2" class="node">
<title>GrayToColor_1c11976f</title>
<polygon fill="lightblue" stroke="black" points="835.75,-612 710.25,-612 710.25,-576 835.75,-576 835.75,-612"/>
<text text-anchor="middle" x="773" y="-588.2" font-family="Helvetica,sans-Serif" font-weight="bold" font-size="14.00">GrayToColor #12</text>
</g>
<!-- image__ColorImage -->
<g id="node17" class="node">
<title>image__ColorImage</title>
<ellipse fill="lightgray" stroke="black" cx="684" cy="-522" rx="55.45" ry="18"/>
<text text-anchor="middle" x="684" y="-516.95" font-family="Times,serif" font-size="14.00">ColorImage</text>
</g>
<!-- GrayToColor_1c11976f&#45;&gt;image__ColorImage -->
<g id="edge1" class="edge">
<title>GrayToColor_1c11976f&#45;&gt;image__ColorImage</title>
<path fill="none" stroke="black" d="M751,-575.7C739.68,-566.79 725.72,-555.81 713.48,-546.19"/>
<polygon fill="black" stroke="black" points="715.74,-543.51 705.72,-540.08 711.41,-549.01 715.74,-543.51"/>
</g>
<!-- IdentifyPrimaryObjects_81f2b000 -->
<g id="node3" class="node">
<title>IdentifyPrimaryObjects_81f2b000</title>
<polygon fill="lightblue" stroke="black" points="445,-900 261,-900 261,-864 445,-864 445,-900"/>
<text text-anchor="middle" x="353" y="-876.2" font-family="Helvetica,sans-Serif" font-weight="bold" font-size="14.00">IdentifyPrimaryObjects #2</text>
</g>
<!-- object__ConfluentRegions -->
<g id="node31" class="node">
<title>object__ConfluentRegions</title>
<ellipse fill="lightgreen" stroke="black" cx="353" cy="-810" rx="77.97" ry="18"/>
<text text-anchor="middle" x="353" y="-804.95" font-family="Times,serif" font-size="14.00">ConfluentRegions</text>
</g>
<!-- IdentifyPrimaryObjects_81f2b000&#45;&gt;object__ConfluentRegions -->
<g id="edge2" class="edge">
<title>IdentifyPrimaryObjects_81f2b000&#45;&gt;object__ConfluentRegions</title>
<path fill="none" stroke="black" d="M353,-863.7C353,-856.41 353,-847.73 353,-839.54"/>
<polygon fill="black" stroke="black" points="356.5,-839.62 353,-829.62 349.5,-839.62 356.5,-839.62"/>
</g>
<!-- IdentifyPrimaryObjects_d8f7a1f1 -->
<g id="node4" class="node">
<title>IdentifyPrimaryObjects_d8f7a1f1</title>
<polygon fill="lightblue" stroke="black" points="263,-612 79,-612 79,-576 263,-576 263,-612"/>
<text text-anchor="middle" x="171" y="-588.2" font-family="Helvetica,sans-Serif" font-weight="bold" font-size="14.00">IdentifyPrimaryObjects #6</text>
</g>
<!-- object__Nuclei -->
<g id="node33" class="node">
<title>object__Nuclei</title>
<ellipse fill="lightgreen" stroke="black" cx="167" cy="-522" rx="35.49" ry="18"/>
<text text-anchor="middle" x="167" y="-516.95" font-family="Times,serif" font-size="14.00">Nuclei</text>
</g>
<!-- IdentifyPrimaryObjects_d8f7a1f1&#45;&gt;object__Nuclei -->
<g id="edge3" class="edge">
<title>IdentifyPrimaryObjects_d8f7a1f1&#45;&gt;object__Nuclei</title>
<path fill="none" stroke="black" d="M170.01,-575.7C169.59,-568.41 169.1,-559.73 168.63,-551.54"/>
<polygon fill="black" stroke="black" points="172.13,-551.4 168.06,-541.62 165.14,-551.8 172.13,-551.4"/>
</g>
<!-- IdentifySecondaryObjects_605c6d78 -->
<g id="node5" class="node">
<title>IdentifySecondaryObjects_605c6d78</title>
<polygon fill="lightblue" stroke="black" points="268,-324 66,-324 66,-288 268,-288 268,-324"/>
<text text-anchor="middle" x="167" y="-300.2" font-family="Helvetica,sans-Serif" font-weight="bold" font-size="14.00">IdentifySecondaryObjects #8</text>
</g>
<!-- object__Cells -->
<g id="node30" class="node">
<title>object__Cells</title>
<ellipse fill="lightgreen" stroke="black" cx="229" cy="-234" rx="29.86" ry="18"/>
<text text-anchor="middle" x="229" y="-228.95" font-family="Times,serif" font-size="14.00">Cells</text>
</g>
<!-- IdentifySecondaryObjects_605c6d78&#45;&gt;object__Cells -->
<g id="edge4" class="edge">
<title>IdentifySecondaryObjects_605c6d78&#45;&gt;object__Cells</title>
<path fill="none" stroke="black" d="M182.33,-287.7C190.04,-278.98 199.52,-268.28 207.91,-258.81"/>
<polygon fill="black" stroke="black" points="210.52,-261.14 214.53,-251.34 205.28,-256.5 210.52,-261.14"/>
</g>
<!-- object__FilteredNuclei -->
<g id="node32" class="node">
<title>object__FilteredNuclei</title>
<ellipse fill="lightgreen" stroke="black" cx="109" cy="-234" rx="64.15" ry="18"/>
<text text-anchor="middle" x="109" y="-228.95" font-family="Times,serif" font-size="14.00">FilteredNuclei</text>
</g>
<!-- IdentifySecondaryObjects_605c6d78&#45;&gt;object__FilteredNuclei -->
<g id="edge5" class="edge">
<title>IdentifySecondaryObjects_605c6d78&#45;&gt;object__FilteredNuclei</title>
<path fill="none" stroke="black" d="M152.66,-287.7C145.82,-279.44 137.5,-269.39 129.96,-260.3"/>
<polygon fill="black" stroke="black" points="132.81,-258.25 123.74,-252.79 127.42,-262.72 132.81,-258.25"/>
</g>
<!-- IdentifySecondaryObjects_d8aaf1b8 -->
<g id="node6" class="node">
<title>IdentifySecondaryObjects_d8aaf1b8</title>
<polygon fill="lightblue" stroke="black" points="268,-468 66,-468 66,-432 268,-432 268,-468"/>
<text text-anchor="middle" x="167" y="-444.2" font-family="Helvetica,sans-Serif" font-weight="bold" font-size="14.00">IdentifySecondaryObjects #7</text>
</g>
<!-- IdentifySecondaryObjects_d8aaf1b8&#45;&gt;object__FilteredNuclei -->
<g id="edge6" class="edge">
<title>IdentifySecondaryObjects_d8aaf1b8&#45;&gt;object__FilteredNuclei</title>
<path fill="none" stroke="black" d="M143.7,-431.83C116.62,-410.21 73.54,-370.28 57,-324 51.62,-308.93 50.95,-302.81 57,-288 61.5,-276.99 69.51,-267.04 77.91,-258.8"/>
<polygon fill="black" stroke="black" points="80.15,-261.49 85.21,-252.18 75.45,-256.31 80.15,-261.49"/>
</g>
<!-- object__PreCells -->
<g id="node34" class="node">
<title>object__PreCells</title>
<ellipse fill="lightgreen" stroke="black" cx="167" cy="-378" rx="42.14" ry="18"/>
<text text-anchor="middle" x="167" y="-372.95" font-family="Times,serif" font-size="14.00">PreCells</text>
</g>
<!-- IdentifySecondaryObjects_d8aaf1b8&#45;&gt;object__PreCells -->
<g id="edge7" class="edge">
<title>IdentifySecondaryObjects_d8aaf1b8&#45;&gt;object__PreCells</title>
<path fill="none" stroke="black" d="M167,-431.7C167,-424.41 167,-415.73 167,-407.54"/>
<polygon fill="black" stroke="black" points="170.5,-407.62 167,-397.62 163.5,-407.62 170.5,-407.62"/>
</g>
<!-- MaskImage_6aae8504 -->
<g id="node7" class="node">
<title>MaskImage_6aae8504</title>
<polygon fill="lightblue" stroke="black" points="430.5,-756 321.5,-756 321.5,-720 430.5,-720 430.5,-756"/>
<text text-anchor="middle" x="376" y="-732.2" font-family="Helvetica,sans-Serif" font-weight="bold" font-size="14.00">MaskImage #5</text>
</g>
<!-- image__MaskedZO1 -->
<g id="node22" class="node">
<title>image__MaskedZO1</title>
<ellipse fill="lightgray" stroke="black" cx="378" cy="-522" rx="57.49" ry="18"/>
<text text-anchor="middle" x="378" y="-516.95" font-family="Times,serif" font-size="14.00">MaskedZO1</text>
</g>
<!-- MaskImage_6aae8504&#45;&gt;image__MaskedZO1 -->
<g id="edge8" class="edge">
<title>MaskImage_6aae8504&#45;&gt;image__MaskedZO1</title>
<path fill="none" stroke="black" d="M364.95,-719.61C359.26,-709.62 352.92,-696.58 350,-684 339.21,-637.52 354.68,-582.63 366.57,-550.44"/>
<polygon fill="black" stroke="black" points="369.7,-552.05 370.03,-541.46 363.16,-549.53 369.7,-552.05"/>
</g>
<!-- MaskImage_6f7b8882 -->
<g id="node8" class="node">
<title>MaskImage_6f7b8882</title>
<polygon fill="lightblue" stroke="black" points="264.5,-756 155.5,-756 155.5,-720 264.5,-720 264.5,-756"/>
<text text-anchor="middle" x="210" y="-732.2" font-family="Helvetica,sans-Serif" font-weight="bold" font-size="14.00">MaskImage #3</text>
</g>
<!-- image__MaskedDAPI -->
<g id="node20" class="node">
<title>image__MaskedDAPI</title>
<ellipse fill="lightgray" stroke="black" cx="188" cy="-666" rx="62.1" ry="18"/>
<text text-anchor="middle" x="188" y="-660.95" font-family="Times,serif" font-size="14.00">MaskedDAPI</text>
</g>
<!-- MaskImage_6f7b8882&#45;&gt;image__MaskedDAPI -->
<g id="edge9" class="edge">
<title>MaskImage_6f7b8882&#45;&gt;image__MaskedDAPI</title>
<path fill="none" stroke="black" d="M204.56,-719.7C202.22,-712.24 199.42,-703.32 196.79,-694.97"/>
<polygon fill="black" stroke="black" points="200.17,-694.04 193.83,-685.55 193.49,-696.14 200.17,-694.04"/>
</g>
<!-- MaskImage_f1408102 -->
<g id="node9" class="node">
<title>MaskImage_f1408102</title>
<polygon fill="lightblue" stroke="black" points="653.5,-756 544.5,-756 544.5,-720 653.5,-720 653.5,-756"/>
<text text-anchor="middle" x="599" y="-732.2" font-family="Helvetica,sans-Serif" font-weight="bold" font-size="14.00">MaskImage #4</text>
</g>
<!-- image__MaskedPhalloidin -->
<g id="node21" class="node">
<title>image__MaskedPhalloidin</title>
<ellipse fill="lightgray" stroke="black" cx="599" cy="-666" rx="78.48" ry="18"/>
<text text-anchor="middle" x="599" y="-660.95" font-family="Times,serif" font-size="14.00">MaskedPhalloidin</text>
</g>
<!-- MaskImage_f1408102&#45;&gt;image__MaskedPhalloidin -->
<g id="edge10" class="edge">
<title>MaskImage_f1408102&#45;&gt;image__MaskedPhalloidin</title>
<path fill="none" stroke="black" d="M599,-719.7C599,-712.41 599,-703.73 599,-695.54"/>
<polygon fill="black" stroke="black" points="602.5,-695.62 599,-685.62 595.5,-695.62 602.5,-695.62"/>
</g>
<!-- OverlayOutlines_3ff4739a -->
<g id="node10" class="node">
<title>OverlayOutlines_3ff4739a</title>
<polygon fill="lightblue" stroke="black" points="348.62,-180 201.38,-180 201.38,-144 348.62,-144 348.62,-180"/>
<text text-anchor="middle" x="275" y="-156.2" font-family="Helvetica,sans-Serif" font-weight="bold" font-size="14.00">OverlayOutlines #14</text>
</g>
<!-- image__OrigOverlay -->
<g id="node23" class="node">
<title>image__OrigOverlay</title>
<ellipse fill="lightgray" stroke="black" cx="275" cy="-90" rx="57.49" ry="18"/>
<text text-anchor="middle" x="275" y="-84.95" font-family="Times,serif" font-size="14.00">OrigOverlay</text>
</g>
<!-- OverlayOutlines_3ff4739a&#45;&gt;image__OrigOverlay -->
<g id="edge11" class="edge">
<title>OverlayOutlines_3ff4739a&#45;&gt;image__OrigOverlay</title>
<path fill="none" stroke="black" d="M275,-143.7C275,-136.41 275,-127.73 275,-119.54"/>
<polygon fill="black" stroke="black" points="278.5,-119.62 275,-109.62 271.5,-119.62 278.5,-119.62"/>
</g>
<!-- RescaleIntensity_127c3402 -->
<g id="node11" class="node">
<title>RescaleIntensity_127c3402</title>
<polygon fill="lightblue" stroke="black" points="849.62,-900 708.38,-900 708.38,-864 849.62,-864 849.62,-900"/>
<text text-anchor="middle" x="779" y="-876.2" font-family="Helvetica,sans-Serif" font-weight="bold" font-size="14.00">RescaleIntensity #9</text>
</g>
<!-- image__RescaleDAPIPaintingForVis -->
<g id="node25" class="node">
<title>image__RescaleDAPIPaintingForVis</title>
<ellipse fill="lightgray" stroke="black" cx="1023" cy="-810" rx="117.37" ry="18"/>
<text text-anchor="middle" x="1023" y="-804.95" font-family="Times,serif" font-size="14.00">RescaleDAPIPaintingForVis</text>
</g>
<!-- RescaleIntensity_127c3402&#45;&gt;image__RescaleDAPIPaintingForVis -->
<g id="edge12" class="edge">
<title>RescaleIntensity_127c3402&#45;&gt;image__RescaleDAPIPaintingForVis</title>
<path fill="none" stroke="black" d="M839.94,-863.52C876.17,-853.12 922.08,-839.95 958.86,-829.4"/>
<polygon fill="black" stroke="black" points="959.36,-832.9 968.01,-826.78 957.43,-826.17 959.36,-832.9"/>
</g>
<!-- RescaleIntensity_405d3211 -->
<g id="node12" class="node">
<title>RescaleIntensity_405d3211</title>
<polygon fill="lightblue" stroke="black" points="1024.38,-756 875.62,-756 875.62,-720 1024.38,-720 1024.38,-756"/>
<text text-anchor="middle" x="950" y="-732.2" font-family="Helvetica,sans-Serif" font-weight="bold" font-size="14.00">RescaleIntensity #10</text>
</g>
<!-- image__RescalePhalloidinForVis -->
<g id="node27" class="node">
<title>image__RescalePhalloidinForVis</title>
<ellipse fill="lightgray" stroke="black" cx="972" cy="-666" rx="103.04" ry="18"/>
<text text-anchor="middle" x="972" y="-660.95" font-family="Times,serif" font-size="14.00">RescalePhalloidinForVis</text>
</g>
<!-- RescaleIntensity_405d3211&#45;&gt;image__RescalePhalloidinForVis -->
<g id="edge13" class="edge">
<title>RescaleIntensity_405d3211&#45;&gt;image__RescalePhalloidinForVis</title>
<path fill="none" stroke="black" d="M955.44,-719.7C957.78,-712.24 960.58,-703.32 963.21,-694.97"/>
<polygon fill="black" stroke="black" points="966.51,-696.14 966.17,-685.55 959.83,-694.04 966.51,-696.14"/>
</g>
<!-- RescaleIntensity_5243b3bf -->
<g id="node13" class="node">
<title>RescaleIntensity_5243b3bf</title>
<polygon fill="lightblue" stroke="black" points="834.38,-756 685.62,-756 685.62,-720 834.38,-720 834.38,-756"/>
<text text-anchor="middle" x="760" y="-732.2" font-family="Helvetica,sans-Serif" font-weight="bold" font-size="14.00">RescaleIntensity #11</text>
</g>
<!-- image__RescaleZO1forvis -->
<g id="node28" class="node">
<title>image__RescaleZO1forvis</title>
<ellipse fill="lightgray" stroke="black" cx="773" cy="-666" rx="77.97" ry="18"/>
<text text-anchor="middle" x="773" y="-660.95" font-family="Times,serif" font-size="14.00">RescaleZO1forvis</text>
</g>
<!-- RescaleIntensity_5243b3bf&#45;&gt;image__RescaleZO1forvis -->
<g id="edge14" class="edge">
<title>RescaleIntensity_5243b3bf&#45;&gt;image__RescaleZO1forvis</title>
<path fill="none" stroke="black" d="M763.21,-719.7C764.58,-712.32 766.22,-703.52 767.75,-695.25"/>
<polygon fill="black" stroke="black" points="771.16,-696.06 769.55,-685.59 764.28,-694.79 771.16,-696.06"/>
</g>
<!-- RescaleIntensity_6f6c7216 -->
<g id="node14" class="node">
<title>RescaleIntensity_6f6c7216</title>
<polygon fill="lightblue" stroke="black" points="713.38,-468 564.62,-468 564.62,-432 713.38,-432 713.38,-468"/>
<text text-anchor="middle" x="639" y="-444.2" font-family="Helvetica,sans-Serif" font-weight="bold" font-size="14.00">RescaleIntensity #13</text>
</g>
<!-- image__RescaleIntensity -->
<g id="node26" class="node">
<title>image__RescaleIntensity</title>
<ellipse fill="lightgray" stroke="black" cx="507" cy="-306" rx="71.82" ry="18"/>
<text text-anchor="middle" x="507" y="-300.95" font-family="Times,serif" font-size="14.00">RescaleIntensity</text>
</g>
<!-- RescaleIntensity_6f6c7216&#45;&gt;image__RescaleIntensity -->
<g id="edge15" class="edge">
<title>RescaleIntensity_6f6c7216&#45;&gt;image__RescaleIntensity</title>
<path fill="none" stroke="black" d="M622.81,-431.59C599.61,-406.62 556.75,-360.52 530.18,-331.94"/>
<polygon fill="black" stroke="black" points="532.9,-329.72 523.53,-324.78 527.77,-334.49 532.9,-329.72"/>
</g>
<!-- SaveImages_38bfea80 -->
<g id="node15" class="node">
<title>SaveImages_38bfea80</title>
<polygon fill="lightblue" stroke="black" points="335.5,-36 214.5,-36 214.5,0 335.5,0 335.5,-36"/>
<text text-anchor="middle" x="275" y="-12.2" font-family="Helvetica,sans-Serif" font-weight="bold" font-size="14.00">SaveImages #15</text>
</g>
<!-- image__Barcodes_Barcodes -->
<g id="node16" class="node">
<title>image__Barcodes_Barcodes</title>
<ellipse fill="lightgray" stroke="black" cx="103" cy="-954" rx="84.11" ry="18"/>
<text text-anchor="middle" x="103" y="-948.95" font-family="Times,serif" font-size="14.00">Barcodes_Barcodes</text>
</g>
<!-- image__Barcodes_Barcodes&#45;&gt;ExportToSpreadsheet_219141ff -->
<g id="edge16" class="edge">
<title>image__Barcodes_Barcodes&#45;&gt;ExportToSpreadsheet_219141ff</title>
<path fill="none" stroke="black" d="M103,-935.7C103,-928.41 103,-919.73 103,-911.54"/>
<polygon fill="black" stroke="black" points="106.5,-911.62 103,-901.62 99.5,-911.62 106.5,-911.62"/>
</g>
<!-- image__ColorImage&#45;&gt;RescaleIntensity_6f6c7216 -->
<g id="edge17" class="edge">
<title>image__ColorImage&#45;&gt;RescaleIntensity_6f6c7216</title>
<path fill="none" stroke="black" d="M673.11,-504.05C668.04,-496.18 661.9,-486.62 656.22,-477.79"/>
<polygon fill="black" stroke="black" points="659.28,-476.07 650.92,-469.55 653.39,-479.85 659.28,-476.07"/>
</g>
<!-- image__DNA -->
<g id="node18" class="node">
<title>image__DNA</title>
<ellipse fill="lightgray" stroke="black" cx="353" cy="-954" rx="30.88" ry="18"/>
<text text-anchor="middle" x="353" y="-948.95" font-family="Times,serif" font-size="14.00">DNA</text>
</g>
<!-- image__DNA&#45;&gt;IdentifyPrimaryObjects_81f2b000 -->
<g id="edge18" class="edge">
<title>image__DNA&#45;&gt;IdentifyPrimaryObjects_81f2b000</title>
<path fill="none" stroke="black" d="M353,-935.7C353,-928.41 353,-919.73 353,-911.54"/>
<polygon fill="black" stroke="black" points="356.5,-911.62 353,-901.62 349.5,-911.62 356.5,-911.62"/>
</g>
<!-- image__DNA&#45;&gt;MaskImage_6f7b8882 -->
<g id="edge19" class="edge">
<title>image__DNA&#45;&gt;MaskImage_6f7b8882</title>
<path fill="none" stroke="black" d="M325.35,-945.38C302.4,-937.64 270.6,-923.41 252,-900 221.22,-861.26 212.83,-802.27 210.64,-767.49"/>
<polygon fill="black" stroke="black" points="214.15,-767.59 210.17,-757.77 207.16,-767.93 214.15,-767.59"/>
</g>
<!-- image__DNA&#45;&gt;RescaleIntensity_127c3402 -->
<g id="edge20" class="edge">
<title>image__DNA&#45;&gt;RescaleIntensity_127c3402</title>
<path fill="none" stroke="black" d="M382.62,-948.13C446.87,-937.58 600.99,-912.25 697.01,-896.47"/>
<polygon fill="black" stroke="black" points="697.34,-899.96 706.64,-894.89 696.21,-893.06 697.34,-899.96"/>
</g>
<!-- image__Leave this black -->
<g id="node19" class="node">
<title>image__Leave this black</title>
<ellipse fill="lightgray" stroke="black" cx="431" cy="-666" rx="71.82" ry="18"/>
<text text-anchor="middle" x="431" y="-660.95" font-family="Times,serif" font-size="14.00">Leave this black</text>
</g>
<!-- image__Leave this black&#45;&gt;GrayToColor_1c11976f -->
<g id="edge21" class="edge">
<title>image__Leave this black&#45;&gt;GrayToColor_1c11976f</title>
<path fill="none" stroke="black" d="M484.58,-653.7C493.73,-651.79 503.13,-649.83 512,-648 574.96,-635 646.53,-620.49 698.78,-609.94"/>
<polygon fill="black" stroke="black" points="699.36,-613.39 708.47,-607.98 697.98,-606.53 699.36,-613.39"/>
</g>
<!-- image__MaskedDAPI&#45;&gt;IdentifyPrimaryObjects_d8f7a1f1 -->
<g id="edge22" class="edge">
<title>image__MaskedDAPI&#45;&gt;IdentifyPrimaryObjects_d8f7a1f1</title>
<path fill="none" stroke="black" d="M183.8,-647.7C182.01,-640.32 179.87,-631.52 177.86,-623.25"/>
<polygon fill="black" stroke="black" points="181.27,-622.47 175.51,-613.58 174.47,-624.12 181.27,-622.47"/>
</g>
<!-- image__MaskedZO1&#45;&gt;IdentifySecondaryObjects_605c6d78 -->
<g id="edge23" class="edge">
<title>image__MaskedZO1&#45;&gt;IdentifySecondaryObjects_605c6d78</title>
<path fill="none" stroke="black" d="M361.79,-504.56C325.17,-467.42 235.8,-376.78 192.01,-332.37"/>
<polygon fill="black" stroke="black" points="194.72,-330.13 185.2,-325.46 189.73,-335.04 194.72,-330.13"/>
</g>
<!-- image__MaskedZO1&#45;&gt;IdentifySecondaryObjects_d8aaf1b8 -->
<g id="edge24" class="edge">
<title>image__MaskedZO1&#45;&gt;IdentifySecondaryObjects_d8aaf1b8</title>
<path fill="none" stroke="black" d="M339.79,-508.32C309.33,-498.22 266.03,-483.85 230.4,-472.03"/>
<polygon fill="black" stroke="black" points="231.64,-468.76 221.04,-468.93 229.43,-475.4 231.64,-468.76"/>
</g>
<!-- image__OrigOverlay&#45;&gt;SaveImages_38bfea80 -->
<g id="edge25" class="edge">
<title>image__OrigOverlay&#45;&gt;SaveImages_38bfea80</title>
<path fill="none" stroke="black" d="M275,-71.7C275,-64.41 275,-55.73 275,-47.54"/>
<polygon fill="black" stroke="black" points="278.5,-47.62 275,-37.62 271.5,-47.62 278.5,-47.62"/>
</g>
<!-- image__Phalloidin -->
<g id="node24" class="node">
<title>image__Phalloidin</title>
<ellipse fill="lightgray" stroke="black" cx="679" cy="-810" rx="48.79" ry="18"/>
<text text-anchor="middle" x="679" y="-804.95" font-family="Times,serif" font-size="14.00">Phalloidin</text>
</g>
<!-- image__Phalloidin&#45;&gt;MaskImage_f1408102 -->
<g id="edge26" class="edge">
<title>image__Phalloidin&#45;&gt;MaskImage_f1408102</title>
<path fill="none" stroke="black" d="M660.85,-793.12C650.95,-784.46 638.49,-773.55 627.34,-763.8"/>
<polygon fill="black" stroke="black" points="629.73,-761.24 619.9,-757.29 625.12,-766.51 629.73,-761.24"/>
</g>
<!-- image__Phalloidin&#45;&gt;RescaleIntensity_405d3211 -->
<g id="edge27" class="edge">
<title>image__Phalloidin&#45;&gt;RescaleIntensity_405d3211</title>
<path fill="none" stroke="black" d="M718.12,-798.9C758.06,-788.58 821.17,-772.28 871.47,-759.28"/>
<polygon fill="black" stroke="black" points="872.05,-762.75 880.86,-756.86 870.3,-755.97 872.05,-762.75"/>
</g>
<!-- image__RescaleDAPIPaintingForVis&#45;&gt;GrayToColor_1c11976f -->
<g id="edge28" class="edge">
<title>image__RescaleDAPIPaintingForVis&#45;&gt;GrayToColor_1c11976f</title>
<path fill="none" stroke="black" d="M1039.7,-791.82C1068.47,-760.13 1120.92,-691.74 1084,-648 1054.31,-612.82 929.52,-600.99 847.33,-597.01"/>
<polygon fill="black" stroke="black" points="847.68,-593.52 837.54,-596.57 847.37,-600.52 847.68,-593.52"/>
</g>
<!-- image__RescaleIntensity&#45;&gt;OverlayOutlines_3ff4739a -->
<g id="edge29" class="edge">
<title>image__RescaleIntensity&#45;&gt;OverlayOutlines_3ff4739a</title>
<path fill="none" stroke="black" d="M480.84,-288.99C439.79,-263.86 360.08,-215.08 312.8,-186.14"/>
<polygon fill="black" stroke="black" points="314.88,-183.3 304.52,-181.07 311.22,-189.28 314.88,-183.3"/>
</g>
<!-- image__RescalePhalloidinForVis&#45;&gt;GrayToColor_1c11976f -->
<g id="edge30" class="edge">
<title>image__RescalePhalloidinForVis&#45;&gt;GrayToColor_1c11976f</title>
<path fill="none" stroke="black" d="M927.84,-649.46C899.97,-639.66 863.63,-626.88 833.15,-616.16"/>
<polygon fill="black" stroke="black" points="834.66,-612.98 824.07,-612.96 832.34,-619.58 834.66,-612.98"/>
</g>
<!-- image__RescaleZO1forvis&#45;&gt;GrayToColor_1c11976f -->
<g id="edge31" class="edge">
<title>image__RescaleZO1forvis&#45;&gt;GrayToColor_1c11976f</title>
<path fill="none" stroke="black" d="M773,-647.7C773,-640.41 773,-631.73 773,-623.54"/>
<polygon fill="black" stroke="black" points="776.5,-623.62 773,-613.62 769.5,-623.62 776.5,-623.62"/>
</g>
<!-- image__ZO1 -->
<g id="node29" class="node">
<title>image__ZO1</title>
<ellipse fill="lightgray" stroke="black" cx="571" cy="-810" rx="27.81" ry="18"/>
<text text-anchor="middle" x="571" y="-804.95" font-family="Times,serif" font-size="14.00">ZO1</text>
</g>
<!-- image__ZO1&#45;&gt;MaskImage_6aae8504 -->
<g id="edge32" class="edge">
<title>image__ZO1&#45;&gt;MaskImage_6aae8504</title>
<path fill="none" stroke="black" d="M547.09,-800.42C519.29,-790.44 472.42,-773.61 434.76,-760.09"/>
<polygon fill="black" stroke="black" points="436.42,-756.97 425.83,-756.89 434.06,-763.56 436.42,-756.97"/>
</g>
<!-- image__ZO1&#45;&gt;RescaleIntensity_5243b3bf -->
<g id="edge33" class="edge">
<title>image__ZO1&#45;&gt;RescaleIntensity_5243b3bf</title>
<path fill="none" stroke="black" d="M594.94,-800.13C621.88,-790.16 666.6,-773.59 702.7,-760.22"/>
<polygon fill="black" stroke="black" points="703.53,-763.65 711.69,-756.89 701.1,-757.08 703.53,-763.65"/>
</g>
<!-- object__Cells&#45;&gt;OverlayOutlines_3ff4739a -->
<g id="edge34" class="edge">
<title>object__Cells&#45;&gt;OverlayOutlines_3ff4739a</title>
<path fill="none" stroke="black" d="M239.67,-216.76C244.97,-208.7 251.51,-198.74 257.52,-189.6"/>
<polygon fill="black" stroke="black" points="260.35,-191.67 262.92,-181.39 254.5,-187.82 260.35,-191.67"/>
</g>
<!-- object__ConfluentRegions&#45;&gt;MaskImage_6aae8504 -->
<g id="edge35" class="edge">
<title>object__ConfluentRegions&#45;&gt;MaskImage_6aae8504</title>
<path fill="none" stroke="black" d="M358.69,-791.7C361.14,-784.24 364.07,-775.32 366.81,-766.97"/>
<polygon fill="black" stroke="black" points="370.11,-768.14 369.91,-757.54 363.46,-765.95 370.11,-768.14"/>
</g>
<!-- object__ConfluentRegions&#45;&gt;MaskImage_6f7b8882 -->
<g id="edge36" class="edge">
<title>object__ConfluentRegions&#45;&gt;MaskImage_6f7b8882</title>
<path fill="none" stroke="black" d="M320.91,-793.29C301.66,-783.87 276.87,-771.73 255.61,-761.33"/>
<polygon fill="black" stroke="black" points="257.38,-758.29 246.86,-757.04 254.3,-764.58 257.38,-758.29"/>
</g>
<!-- object__ConfluentRegions&#45;&gt;MaskImage_f1408102 -->
<g id="edge37" class="edge">
<title>object__ConfluentRegions&#45;&gt;MaskImage_f1408102</title>
<path fill="none" stroke="black" d="M400.72,-795.42C438.43,-784.69 491.48,-769.6 533.22,-757.72"/>
<polygon fill="black" stroke="black" points="534,-761.14 542.66,-755.03 532.08,-754.4 534,-761.14"/>
</g>
<!-- object__ConfluentRegions&#45;&gt;OverlayOutlines_3ff4739a -->
<g id="edge38" class="edge">
<title>object__ConfluentRegions&#45;&gt;OverlayOutlines_3ff4739a</title>
<path fill="none" stroke="black" d="M337.25,-792.08C328.89,-782.22 319.1,-769.18 313,-756 295.96,-719.21 293,-707.54 293,-667 293,-667 293,-667 293,-593 293,-497.88 296,-474.12 296,-379 296,-379 296,-379 296,-305 296,-265.31 287.87,-220.05 281.73,-191.51"/>
<polygon fill="black" stroke="black" points="285.17,-190.84 279.58,-181.84 278.34,-192.37 285.17,-190.84"/>
</g>
<!-- object__Nuclei&#45;&gt;IdentifySecondaryObjects_d8aaf1b8 -->
<g id="edge39" class="edge">
<title>object__Nuclei&#45;&gt;IdentifySecondaryObjects_d8aaf1b8</title>
<path fill="none" stroke="black" d="M167,-503.7C167,-496.41 167,-487.73 167,-479.54"/>
<polygon fill="black" stroke="black" points="170.5,-479.62 167,-469.62 163.5,-479.62 170.5,-479.62"/>
</g>
<!-- object__Nuclei&#45;&gt;OverlayOutlines_3ff4739a -->
<g id="edge40" class="edge">
<title>object__Nuclei&#45;&gt;OverlayOutlines_3ff4739a</title>
<path fill="none" stroke="black" d="M137.91,-511.41C90.06,-493.59 0,-450.55 0,-379 0,-379 0,-379 0,-305 0,-262.33 3.43,-243.56 36,-216 59.16,-196.4 130.85,-182.17 189.72,-173.43"/>
<polygon fill="black" stroke="black" points="190.03,-176.92 199.43,-172.02 189.03,-169.99 190.03,-176.92"/>
</g>
<!-- object__PreCells&#45;&gt;IdentifySecondaryObjects_605c6d78 -->
<g id="edge41" class="edge">
<title>object__PreCells&#45;&gt;IdentifySecondaryObjects_605c6d78</title>
<path fill="none" stroke="black" d="M167,-359.7C167,-352.41 167,-343.73 167,-335.54"/>
<polygon fill="black" stroke="black" points="170.5,-335.62 167,-325.62 163.5,-335.62 170.5,-335.62"/>
</g>
</g>
</svg>
