<?xml version="1.0" encoding="UTF-8" standalone="no"?>
<!DOCTYPE svg PUBLIC "-//W3C//DTD SVG 1.1//EN"
 "http://www.w3.org/Graphics/SVG/1.1/DTD/svg11.dtd">
<!-- Generated by graphviz version 12.2.1 (20241206.2353)
 -->
<!-- Pages: 1 -->
<svg width="798pt" height="764pt"
 viewBox="0.00 0.00 798.45 764.00" xmlns="http://www.w3.org/2000/svg" xmlns:xlink="http://www.w3.org/1999/xlink">
<g id="graph0" class="graph" transform="scale(1 1) rotate(0) translate(4 760)">
<polygon fill="white" stroke="none" points="-4,4 -4,-760 794.45,-760 794.45,4 -4,4"/>
<!-- CorrectIlluminationApply_72307dfc -->
<g id="node1" class="node">
<title>CorrectIlluminationApply_72307dfc</title>
<polygon fill="lightblue" stroke="black" points="528.12,-684 331.38,-684 331.38,-648 528.12,-648 528.12,-684"/>
<text text-anchor="middle" x="429.75" y="-660.2" font-family="Helvetica,sans-Serif" font-weight="bold" font-size="14.00">CorrectIlluminationApply #2</text>
</g>
<!-- image__CorrDNA -->
<g id="node10" class="node">
<title>image__CorrDNA</title>
<ellipse fill="lightgray" stroke="black" cx="238.75" cy="-594" rx="47.77" ry="18"/>
<text text-anchor="middle" x="238.75" y="-588.95" font-family="Times,serif" font-size="14.00">CorrDNA</text>
</g>
<!-- CorrectIlluminationApply_72307dfc&#45;&gt;image__CorrDNA -->
<g id="edge1" class="edge">
<title>CorrectIlluminationApply_72307dfc&#45;&gt;image__CorrDNA</title>
<path fill="none" stroke="black" d="M382.05,-647.52C351.54,-636.34 312.26,-621.94 282.55,-611.05"/>
<polygon fill="black" stroke="black" points="284.08,-607.89 273.49,-607.73 281.68,-614.46 284.08,-607.89"/>
</g>
<!-- image__CorrPhalloidin -->
<g id="node11" class="node">
<title>image__CorrPhalloidin</title>
<ellipse fill="lightgray" stroke="black" cx="429.75" cy="-594" rx="65.68" ry="18"/>
<text text-anchor="middle" x="429.75" y="-588.95" font-family="Times,serif" font-size="14.00">CorrPhalloidin</text>
</g>
<!-- CorrectIlluminationApply_72307dfc&#45;&gt;image__CorrPhalloidin -->
<g id="edge2" class="edge">
<title>CorrectIlluminationApply_72307dfc&#45;&gt;image__CorrPhalloidin</title>
<path fill="none" stroke="black" d="M429.75,-647.7C429.75,-640.41 429.75,-631.73 429.75,-623.54"/>
<polygon fill="black" stroke="black" points="433.25,-623.62 429.75,-613.62 426.25,-623.62 433.25,-623.62"/>
</g>
<!-- image__CorrZO1 -->
<g id="node12" class="node">
<title>image__CorrZO1</title>
<ellipse fill="lightgray" stroke="black" cx="601.75" cy="-594" rx="44.7" ry="18"/>
<text text-anchor="middle" x="601.75" y="-588.95" font-family="Times,serif" font-size="14.00">CorrZO1</text>
</g>
<!-- CorrectIlluminationApply_72307dfc&#45;&gt;image__CorrZO1 -->
<g id="edge3" class="edge">
<title>CorrectIlluminationApply_72307dfc&#45;&gt;image__CorrZO1</title>
<path fill="none" stroke="black" d="M472.71,-647.52C499.56,-636.59 533.95,-622.59 560.47,-611.8"/>
<polygon fill="black" stroke="black" points="561.6,-615.12 569.54,-608.11 558.96,-608.63 561.6,-615.12"/>
</g>
<!-- IdentifyPrimaryObjects_5d665fe4 -->
<g id="node2" class="node">
<title>IdentifyPrimaryObjects_5d665fe4</title>
<polygon fill="lightblue" stroke="black" points="247.75,-540 63.75,-540 63.75,-504 247.75,-504 247.75,-540"/>
<text text-anchor="middle" x="155.75" y="-516.2" font-family="Helvetica,sans-Serif" font-weight="bold" font-size="14.00">IdentifyPrimaryObjects #8</text>
</g>
<!-- object__ConfluentRegions -->
<g id="node22" class="node">
<title>object__ConfluentRegions</title>
<ellipse fill="lightgreen" stroke="black" cx="155.75" cy="-450" rx="77.97" ry="18"/>
<text text-anchor="middle" x="155.75" y="-444.95" font-family="Times,serif" font-size="14.00">ConfluentRegions</text>
</g>
<!-- IdentifyPrimaryObjects_5d665fe4&#45;&gt;object__ConfluentRegions -->
<g id="edge4" class="edge">
<title>IdentifyPrimaryObjects_5d665fe4&#45;&gt;object__ConfluentRegions</title>
<path fill="none" stroke="black" d="M155.75,-503.7C155.75,-496.41 155.75,-487.73 155.75,-479.54"/>
<polygon fill="black" stroke="black" points="159.25,-479.62 155.75,-469.62 152.25,-479.62 159.25,-479.62"/>
</g>
<!-- IdentifyPrimaryObjects_ed9ed900 -->
<g id="node3" class="node">
<title>IdentifyPrimaryObjects_ed9ed900</title>
<polygon fill="lightblue" stroke="black" points="191.5,-252 0,-252 0,-216 191.5,-216 191.5,-252"/>
<text text-anchor="middle" x="95.75" y="-228.2" font-family="Helvetica,sans-Serif" font-weight="bold" font-size="14.00">IdentifyPrimaryObjects #11</text>
</g>
<!-- object__Nuclei -->
<g id="node24" class="node">
<title>object__Nuclei</title>
<ellipse fill="lightgreen" stroke="black" cx="159.75" cy="-162" rx="35.49" ry="18"/>
<text text-anchor="middle" x="159.75" y="-156.95" font-family="Times,serif" font-size="14.00">Nuclei</text>
</g>
<!-- IdentifyPrimaryObjects_ed9ed900&#45;&gt;object__Nuclei -->
<g id="edge5" class="edge">
<title>IdentifyPrimaryObjects_ed9ed900&#45;&gt;object__Nuclei</title>
<path fill="none" stroke="black" d="M111.57,-215.7C119.51,-207.02 129.24,-196.37 137.88,-186.92"/>
<polygon fill="black" stroke="black" points="140.24,-189.53 144.4,-179.79 135.07,-184.81 140.24,-189.53"/>
</g>
<!-- IdentifySecondaryObjects_1058d246 -->
<g id="node4" class="node">
<title>IdentifySecondaryObjects_1058d246</title>
<polygon fill="lightblue" stroke="black" points="295.5,-108 86,-108 86,-72 295.5,-72 295.5,-108"/>
<text text-anchor="middle" x="190.75" y="-84.2" font-family="Helvetica,sans-Serif" font-weight="bold" font-size="14.00">IdentifySecondaryObjects #12</text>
</g>
<!-- object__Cells -->
<g id="node21" class="node">
<title>object__Cells</title>
<ellipse fill="lightgreen" stroke="black" cx="134.75" cy="-18" rx="29.86" ry="18"/>
<text text-anchor="middle" x="134.75" y="-12.95" font-family="Times,serif" font-size="14.00">Cells</text>
</g>
<!-- IdentifySecondaryObjects_1058d246&#45;&gt;object__Cells -->
<g id="edge6" class="edge">
<title>IdentifySecondaryObjects_1058d246&#45;&gt;object__Cells</title>
<path fill="none" stroke="black" d="M176.91,-71.7C170.11,-63.19 161.79,-52.8 154.35,-43.5"/>
<polygon fill="black" stroke="black" points="157.21,-41.48 148.23,-35.85 151.75,-45.85 157.21,-41.48"/>
</g>
<!-- object__FilteredNuclei -->
<g id="node23" class="node">
<title>object__FilteredNuclei</title>
<ellipse fill="lightgreen" stroke="black" cx="246.75" cy="-18" rx="64.15" ry="18"/>
<text text-anchor="middle" x="246.75" y="-12.95" font-family="Times,serif" font-size="14.00">FilteredNuclei</text>
</g>
<!-- IdentifySecondaryObjects_1058d246&#45;&gt;object__FilteredNuclei -->
<g id="edge7" class="edge">
<title>IdentifySecondaryObjects_1058d246&#45;&gt;object__FilteredNuclei</title>
<path fill="none" stroke="black" d="M204.59,-71.7C211.13,-63.52 219.07,-53.6 226.28,-44.58"/>
<polygon fill="black" stroke="black" points="228.99,-46.8 232.51,-36.8 223.53,-42.43 228.99,-46.8"/>
</g>
<!-- MaskImage_7d1f082e -->
<g id="node5" class="node">
<title>MaskImage_7d1f082e</title>
<polygon fill="lightblue" stroke="black" points="150.25,-396 41.25,-396 41.25,-360 150.25,-360 150.25,-396"/>
<text text-anchor="middle" x="95.75" y="-372.2" font-family="Helvetica,sans-Serif" font-weight="bold" font-size="14.00">MaskImage #9</text>
</g>
<!-- image__MaskedDAPI -->
<g id="node16" class="node">
<title>image__MaskedDAPI</title>
<ellipse fill="lightgray" stroke="black" cx="95.75" cy="-306" rx="62.1" ry="18"/>
<text text-anchor="middle" x="95.75" y="-300.95" font-family="Times,serif" font-size="14.00">MaskedDAPI</text>
</g>
<!-- MaskImage_7d1f082e&#45;&gt;image__MaskedDAPI -->
<g id="edge8" class="edge">
<title>MaskImage_7d1f082e&#45;&gt;image__MaskedDAPI</title>
<path fill="none" stroke="black" d="M95.75,-359.7C95.75,-352.41 95.75,-343.73 95.75,-335.54"/>
<polygon fill="black" stroke="black" points="99.25,-335.62 95.75,-325.62 92.25,-335.62 99.25,-335.62"/>
</g>
<!-- MaskImage_b1a9bc07 -->
<g id="node6" class="node">
<title>MaskImage_b1a9bc07</title>
<polygon fill="lightblue" stroke="black" points="346,-396 229.5,-396 229.5,-360 346,-360 346,-396"/>
<text text-anchor="middle" x="287.75" y="-372.2" font-family="Helvetica,sans-Serif" font-weight="bold" font-size="14.00">MaskImage #10</text>
</g>
<!-- image__MaskedPhalloidin -->
<g id="node17" class="node">
<title>image__MaskedPhalloidin</title>
<ellipse fill="lightgray" stroke="black" cx="287.75" cy="-234" rx="78.48" ry="18"/>
<text text-anchor="middle" x="287.75" y="-228.95" font-family="Times,serif" font-size="14.00">MaskedPhalloidin</text>
</g>
<!-- MaskImage_b1a9bc07&#45;&gt;image__MaskedPhalloidin -->
<g id="edge9" class="edge">
<title>MaskImage_b1a9bc07&#45;&gt;image__MaskedPhalloidin</title>
<path fill="none" stroke="black" d="M287.75,-359.59C287.75,-335.61 287.75,-292.14 287.75,-263.42"/>
<polygon fill="black" stroke="black" points="291.25,-263.62 287.75,-253.62 284.25,-263.62 291.25,-263.62"/>
</g>
<!-- SaveImages_5b0bf5a4 -->
<g id="node7" class="node">
<title>SaveImages_5b0bf5a4</title>
<polygon fill="lightblue" stroke="black" points="681.5,-540 568,-540 568,-504 681.5,-504 681.5,-540"/>
<text text-anchor="middle" x="624.75" y="-516.2" font-family="Helvetica,sans-Serif" font-weight="bold" font-size="14.00">SaveImages #4</text>
</g>
<!-- SaveImages_65705910 -->
<g id="node8" class="node">
<title>SaveImages_65705910</title>
<polygon fill="lightblue" stroke="black" points="379.5,-540 266,-540 266,-504 379.5,-504 379.5,-540"/>
<text text-anchor="middle" x="322.75" y="-516.2" font-family="Helvetica,sans-Serif" font-weight="bold" font-size="14.00">SaveImages #3</text>
</g>
<!-- SaveImages_a0f0bc79 -->
<g id="node9" class="node">
<title>SaveImages_a0f0bc79</title>
<polygon fill="lightblue" stroke="black" points="549.5,-540 436,-540 436,-504 549.5,-504 549.5,-540"/>
<text text-anchor="middle" x="492.75" y="-516.2" font-family="Helvetica,sans-Serif" font-weight="bold" font-size="14.00">SaveImages #6</text>
</g>
<!-- image__CorrDNA&#45;&gt;IdentifyPrimaryObjects_5d665fe4 -->
<g id="edge10" class="edge">
<title>image__CorrDNA&#45;&gt;IdentifyPrimaryObjects_5d665fe4</title>
<path fill="none" stroke="black" d="M219.92,-577.12C209.55,-568.37 196.46,-557.33 184.81,-547.51"/>
<polygon fill="black" stroke="black" points="187.31,-545.04 177.41,-541.27 182.8,-550.39 187.31,-545.04"/>
</g>
<!-- image__CorrDNA&#45;&gt;MaskImage_7d1f082e -->
<g id="edge11" class="edge">
<title>image__CorrDNA&#45;&gt;MaskImage_7d1f082e</title>
<path fill="none" stroke="black" d="M194.86,-586.5C145.98,-578.26 71.59,-562.38 54.75,-540 24.6,-499.94 54.3,-440.04 76.47,-405.73"/>
<polygon fill="black" stroke="black" points="79.25,-407.87 81.91,-397.61 73.44,-403.97 79.25,-407.87"/>
</g>
<!-- image__CorrDNA&#45;&gt;SaveImages_65705910 -->
<g id="edge12" class="edge">
<title>image__CorrDNA&#45;&gt;SaveImages_65705910</title>
<path fill="none" stroke="black" d="M257.81,-577.12C268.3,-568.37 281.55,-557.33 293.34,-547.51"/>
<polygon fill="black" stroke="black" points="295.4,-550.35 300.84,-541.26 290.91,-544.97 295.4,-550.35"/>
</g>
<!-- image__CorrPhalloidin&#45;&gt;MaskImage_b1a9bc07 -->
<g id="edge13" class="edge">
<title>image__CorrPhalloidin&#45;&gt;MaskImage_b1a9bc07</title>
<path fill="none" stroke="black" d="M423.24,-575.62C416,-557.2 403.38,-527.56 388.75,-504 365.81,-467.06 333.37,-428.76 311.49,-404.46"/>
<polygon fill="black" stroke="black" points="314.29,-402.33 304.97,-397.28 309.11,-407.04 314.29,-402.33"/>
</g>
<!-- image__CorrPhalloidin&#45;&gt;SaveImages_a0f0bc79 -->
<g id="edge14" class="edge">
<title>image__CorrPhalloidin&#45;&gt;SaveImages_a0f0bc79</title>
<path fill="none" stroke="black" d="M445,-576.05C452.4,-567.84 461.44,-557.79 469.66,-548.66"/>
<polygon fill="black" stroke="black" points="472.1,-551.17 476.19,-541.4 466.9,-546.49 472.1,-551.17"/>
</g>
<!-- image__CorrZO1&#45;&gt;SaveImages_5b0bf5a4 -->
<g id="edge15" class="edge">
<title>image__CorrZO1&#45;&gt;SaveImages_5b0bf5a4</title>
<path fill="none" stroke="black" d="M607.44,-575.7C609.89,-568.24 612.82,-559.32 615.56,-550.97"/>
<polygon fill="black" stroke="black" points="618.86,-552.14 618.66,-541.54 612.21,-549.95 618.86,-552.14"/>
</g>
<!-- image__IllumDNA -->
<g id="node13" class="node">
<title>image__IllumDNA</title>
<ellipse fill="lightgray" stroke="black" cx="97.75" cy="-738" rx="51.35" ry="18"/>
<text text-anchor="middle" x="97.75" y="-732.95" font-family="Times,serif" font-size="14.00">IllumDNA</text>
</g>
<!-- image__IllumDNA&#45;&gt;CorrectIlluminationApply_72307dfc -->
<g id="edge16" class="edge">
<title>image__IllumDNA&#45;&gt;CorrectIlluminationApply_72307dfc</title>
<path fill="none" stroke="black" d="M136.35,-725.75C143.76,-723.73 151.48,-721.72 158.75,-720 211.55,-707.5 270.64,-695.69 320.13,-686.41"/>
<polygon fill="black" stroke="black" points="320.52,-689.9 329.7,-684.62 319.23,-683.02 320.52,-689.9"/>
</g>
<!-- image__IllumPhalloidin -->
<g id="node14" class="node">
<title>image__IllumPhalloidin</title>
<ellipse fill="lightgray" stroke="black" cx="236.75" cy="-738" rx="69.26" ry="18"/>
<text text-anchor="middle" x="236.75" y="-732.95" font-family="Times,serif" font-size="14.00">IllumPhalloidin</text>
</g>
<!-- image__IllumPhalloidin&#45;&gt;CorrectIlluminationApply_72307dfc -->
<g id="edge17" class="edge">
<title>image__IllumPhalloidin&#45;&gt;CorrectIlluminationApply_72307dfc</title>
<path fill="none" stroke="black" d="M275.81,-722.83C303.1,-712.94 340.03,-699.54 370.88,-688.35"/>
<polygon fill="black" stroke="black" points="371.88,-691.71 380.09,-685.01 369.49,-685.13 371.88,-691.71"/>
</g>
<!-- image__IllumZO1 -->
<g id="node15" class="node">
<title>image__IllumZO1</title>
<ellipse fill="lightgray" stroke="black" cx="372.75" cy="-738" rx="48.28" ry="18"/>
<text text-anchor="middle" x="372.75" y="-732.95" font-family="Times,serif" font-size="14.00">IllumZO1</text>
</g>
<!-- image__IllumZO1&#45;&gt;CorrectIlluminationApply_72307dfc -->
<g id="edge18" class="edge">
<title>image__IllumZO1&#45;&gt;CorrectIlluminationApply_72307dfc</title>
<path fill="none" stroke="black" d="M386.26,-720.41C392.88,-712.28 401,-702.31 408.43,-693.18"/>
<polygon fill="black" stroke="black" points="410.99,-695.58 414.59,-685.62 405.56,-691.16 410.99,-695.58"/>
</g>
<!-- image__MaskedDAPI&#45;&gt;IdentifyPrimaryObjects_ed9ed900 -->
<g id="edge19" class="edge">
<title>image__MaskedDAPI&#45;&gt;IdentifyPrimaryObjects_ed9ed900</title>
<path fill="none" stroke="black" d="M95.75,-287.7C95.75,-280.41 95.75,-271.73 95.75,-263.54"/>
<polygon fill="black" stroke="black" points="99.25,-263.62 95.75,-253.62 92.25,-263.62 99.25,-263.62"/>
</g>
<!-- image__MaskedPhalloidin&#45;&gt;IdentifySecondaryObjects_1058d246 -->
<g id="edge20" class="edge">
<title>image__MaskedPhalloidin&#45;&gt;IdentifySecondaryObjects_1058d246</title>
<path fill="none" stroke="black" d="M276.05,-215.87C259.37,-191.46 228.61,-146.43 208.94,-117.64"/>
<polygon fill="black" stroke="black" points="211.88,-115.72 203.35,-109.44 206.1,-119.67 211.88,-115.72"/>
</g>
<!-- image__OrigDNA -->
<g id="node18" class="node">
<title>image__OrigDNA</title>
<ellipse fill="lightgray" stroke="black" cx="486.75" cy="-738" rx="47.77" ry="18"/>
<text text-anchor="middle" x="486.75" y="-732.95" font-family="Times,serif" font-size="14.00">OrigDNA</text>
</g>
<!-- image__OrigDNA&#45;&gt;CorrectIlluminationApply_72307dfc -->
<g id="edge21" class="edge">
<title>image__OrigDNA&#45;&gt;CorrectIlluminationApply_72307dfc</title>
<path fill="none" stroke="black" d="M473.24,-720.41C466.62,-712.28 458.5,-702.31 451.07,-693.18"/>
<polygon fill="black" stroke="black" points="453.94,-691.16 444.91,-685.62 448.51,-695.58 453.94,-691.16"/>
</g>
<!-- image__OrigPhalloidin -->
<g id="node19" class="node">
<title>image__OrigPhalloidin</title>
<ellipse fill="lightgray" stroke="black" cx="617.75" cy="-738" rx="65.68" ry="18"/>
<text text-anchor="middle" x="617.75" y="-732.95" font-family="Times,serif" font-size="14.00">OrigPhalloidin</text>
</g>
<!-- image__OrigPhalloidin&#45;&gt;CorrectIlluminationApply_72307dfc -->
<g id="edge22" class="edge">
<title>image__OrigPhalloidin&#45;&gt;CorrectIlluminationApply_72307dfc</title>
<path fill="none" stroke="black" d="M580.16,-723C553.51,-713.08 517.27,-699.59 487.03,-688.33"/>
<polygon fill="black" stroke="black" points="488.63,-685.19 478.03,-684.98 486.19,-691.75 488.63,-685.19"/>
</g>
<!-- image__OrigZO1 -->
<g id="node20" class="node">
<title>image__OrigZO1</title>
<ellipse fill="lightgray" stroke="black" cx="745.75" cy="-738" rx="44.7" ry="18"/>
<text text-anchor="middle" x="745.75" y="-732.95" font-family="Times,serif" font-size="14.00">OrigZO1</text>
</g>
<!-- image__OrigZO1&#45;&gt;CorrectIlluminationApply_72307dfc -->
<g id="edge23" class="edge">
<title>image__OrigZO1&#45;&gt;CorrectIlluminationApply_72307dfc</title>
<path fill="none" stroke="black" d="M712.27,-725.64C705.83,-723.63 699.11,-721.66 692.75,-720 642.88,-707.02 587,-695.36 539.61,-686.31"/>
<polygon fill="black" stroke="black" points="540.35,-682.88 529.87,-684.46 539.05,-689.76 540.35,-682.88"/>
</g>
<!-- object__ConfluentRegions&#45;&gt;MaskImage_7d1f082e -->
<g id="edge24" class="edge">
<title>object__ConfluentRegions&#45;&gt;MaskImage_7d1f082e</title>
<path fill="none" stroke="black" d="M141.23,-432.05C134.25,-423.92 125.75,-414 117.99,-404.94"/>
<polygon fill="black" stroke="black" points="120.71,-402.74 111.54,-397.42 115.39,-407.29 120.71,-402.74"/>
</g>
<!-- object__ConfluentRegions&#45;&gt;MaskImage_b1a9bc07 -->
<g id="edge25" class="edge">
<title>object__ConfluentRegions&#45;&gt;MaskImage_b1a9bc07</title>
<path fill="none" stroke="black" d="M186.03,-432.94C203.45,-423.7 225.62,-411.95 244.82,-401.77"/>
<polygon fill="black" stroke="black" points="246.3,-404.94 253.5,-397.17 243.02,-398.76 246.3,-404.94"/>
</g>
<!-- object__Nuclei&#45;&gt;IdentifySecondaryObjects_1058d246 -->
<g id="edge26" class="edge">
<title>object__Nuclei&#45;&gt;IdentifySecondaryObjects_1058d246</title>
<path fill="none" stroke="black" d="M167.25,-144.05C170.63,-136.43 174.7,-127.23 178.5,-118.65"/>
<polygon fill="black" stroke="black" points="181.64,-120.22 182.49,-109.66 175.24,-117.39 181.64,-120.22"/>
</g>
</g>
</svg>
