<?xml version="1.0" encoding="UTF-8" standalone="no"?>
<svg
   height="89.059998"
   viewBox="129.28 350.63 11.408932 89.059997"
   width="80.020004"
   version="1.1"
   id="svg16"
   xmlns="http://www.w3.org/2000/svg"
   xmlns:svg="http://www.w3.org/2000/svg">
   <defs
      id="defs20" />
   <path
      d="m 95.14447,350.63 h 79.85 v 89.08 h -79.85 z"
      fill="#264980"
      id="path2" />
   <g
      fill="#ffffff"
      id="g8"
      transform="translate(-34.305536,-0.610002)">
      <path
         d="m 129.28,357.06 c 27.75,28.78 55.34,40.43 80.02,49.2 v -6.52 c -15.77,-2.08 -51.41,-19.04 -80.02,-42.68 z m 0,20.04 c 27.75,28.78 55.34,40.43 80.02,49.2 v -6.52 C 193.53,417.7 157.89,400.74 129.28,377.1 Z m 0,20.04 c 28.61,23.64 64.25,40.61 80.02,42.67 v 0.5 h -15.87 c -20.38,-8.37 -42.21,-20.41 -64.15,-43.17 z"
         id="path4" />
      <path
         d="m 129.28,434.51 c 27.75,-28.78 55.34,-40.43 80.02,-49.2 v 6.52 c -15.77,2.07 -51.41,19.03 -80.02,42.68 z m 0,-20.05 c 27.75,-28.78 55.34,-40.43 80.02,-49.19 v 6.52 c -15.77,2.07 -51.41,19.03 -80.02,42.67 z m 0,-20.04 c 28.61,-23.64 64.25,-40.6 80.02,-42.67 v -0.5 h -15.87 c -20.38,8.37 -42.21,20.41 -64.15,43.17 z"
         id="path6" />
   </g>
</svg>