<?xml version="1.0" encoding="UTF-8" standalone="no"?>
<!DOCTYPE svg PUBLIC "-//W3C//DTD SVG 1.1//EN"
 "http://www.w3.org/Graphics/SVG/1.1/DTD/svg11.dtd">
<!-- Generated by graphviz version 12.2.1 (20241206.2353)
 -->
<!-- Pages: 1 -->
<svg width="859pt" height="548pt"
 viewBox="0.00 0.00 858.51 548.00" xmlns="http://www.w3.org/2000/svg" xmlns:xlink="http://www.w3.org/1999/xlink">
<g id="graph0" class="graph" transform="scale(1 1) rotate(0) translate(4 544)">
<polygon fill="white" stroke="none" points="-4,4 -4,-544 854.51,-544 854.51,4 -4,4"/>
<!-- CorrectIlluminationCalculate_2ab137a7 -->
<g id="node1" class="node">
<title>CorrectIlluminationCalculate_2ab137a7</title>
<polygon fill="lightblue" stroke="black" points="774.39,-324 555.14,-324 555.14,-288 774.39,-288 774.39,-324"/>
<text text-anchor="middle" x="664.76" y="-300.2" font-family="Helvetica,sans-Serif" font-weight="bold" font-size="14.00">CorrectIlluminationCalculate #6</text>
</g>
<!-- image__IllumBlueAvg -->
<g id="node16" class="node">
<title>image__IllumBlueAvg</title>
<ellipse fill="lightgray" stroke="black" cx="586.76" cy="-234" rx="64.66" ry="18"/>
<text text-anchor="middle" x="586.76" y="-228.95" font-family="Times,serif" font-size="14.00">IllumBlueAvg</text>
</g>
<!-- CorrectIlluminationCalculate_2ab137a7&#45;&gt;image__IllumBlueAvg -->
<g id="edge1" class="edge">
<title>CorrectIlluminationCalculate_2ab137a7&#45;&gt;image__IllumBlueAvg</title>
<path fill="none" stroke="black" d="M645.48,-287.7C635.89,-279.09 624.15,-268.55 613.69,-259.17"/>
<polygon fill="black" stroke="black" points="616.19,-256.71 606.41,-252.63 611.51,-261.92 616.19,-256.71"/>
</g>
<!-- image__IllumBlueDilated -->
<g id="node17" class="node">
<title>image__IllumBlueDilated</title>
<ellipse fill="lightgray" stroke="black" cx="427.76" cy="-234" rx="75.92" ry="18"/>
<text text-anchor="middle" x="427.76" y="-228.95" font-family="Times,serif" font-size="14.00">IllumBlueDilated</text>
</g>
<!-- CorrectIlluminationCalculate_2ab137a7&#45;&gt;image__IllumBlueDilated -->
<g id="edge2" class="edge">
<title>CorrectIlluminationCalculate_2ab137a7&#45;&gt;image__IllumBlueDilated</title>
<path fill="none" stroke="black" d="M605.57,-287.52C568.66,-276.62 521.42,-262.66 484.91,-251.88"/>
<polygon fill="black" stroke="black" points="485.98,-248.55 475.4,-249.07 484,-255.26 485.98,-248.55"/>
</g>
<!-- image__IllumPhalloidin -->
<g id="node19" class="node">
<title>image__IllumPhalloidin</title>
<ellipse fill="lightgray" stroke="black" cx="738.76" cy="-234" rx="69.26" ry="18"/>
<text text-anchor="middle" x="738.76" y="-228.95" font-family="Times,serif" font-size="14.00">IllumPhalloidin</text>
</g>
<!-- CorrectIlluminationCalculate_2ab137a7&#45;&gt;image__IllumPhalloidin -->
<g id="edge3" class="edge">
<title>CorrectIlluminationCalculate_2ab137a7&#45;&gt;image__IllumPhalloidin</title>
<path fill="none" stroke="black" d="M683.05,-287.7C691.99,-279.24 702.9,-268.92 712.7,-259.66"/>
<polygon fill="black" stroke="black" points="714.98,-262.32 719.83,-252.9 710.16,-257.23 714.98,-262.32"/>
</g>
<!-- CorrectIlluminationCalculate_cd0871b -->
<g id="node2" class="node">
<title>CorrectIlluminationCalculate_cd0871b</title>
<polygon fill="lightblue" stroke="black" points="300.39,-324 81.14,-324 81.14,-288 300.39,-288 300.39,-324"/>
<text text-anchor="middle" x="190.76" y="-300.2" font-family="Helvetica,sans-Serif" font-weight="bold" font-size="14.00">CorrectIlluminationCalculate #9</text>
</g>
<!-- CorrectIlluminationCalculate_cd0871b&#45;&gt;image__IllumBlueAvg -->
<g id="edge4" class="edge">
<title>CorrectIlluminationCalculate_cd0871b&#45;&gt;image__IllumBlueAvg</title>
<path fill="none" stroke="black" d="M300.61,-288.67C362.99,-278.95 442.44,-265.85 512.76,-252 517.7,-251.03 522.8,-249.97 527.92,-248.87"/>
<polygon fill="black" stroke="black" points="528.59,-252.3 537.61,-246.74 527.09,-245.47 528.59,-252.3"/>
</g>
<!-- CorrectIlluminationCalculate_cd0871b&#45;&gt;image__IllumBlueDilated -->
<g id="edge5" class="edge">
<title>CorrectIlluminationCalculate_cd0871b&#45;&gt;image__IllumBlueDilated</title>
<path fill="none" stroke="black" d="M249.95,-287.52C286.86,-276.62 334.1,-262.66 370.61,-251.88"/>
<polygon fill="black" stroke="black" points="371.52,-255.26 380.12,-249.07 369.54,-248.55 371.52,-255.26"/>
</g>
<!-- image__IllumZO1 -->
<g id="node20" class="node">
<title>image__IllumZO1</title>
<ellipse fill="lightgray" stroke="black" cx="153.76" cy="-234" rx="48.28" ry="18"/>
<text text-anchor="middle" x="153.76" y="-228.95" font-family="Times,serif" font-size="14.00">IllumZO1</text>
</g>
<!-- CorrectIlluminationCalculate_cd0871b&#45;&gt;image__IllumZO1 -->
<g id="edge6" class="edge">
<title>CorrectIlluminationCalculate_cd0871b&#45;&gt;image__IllumZO1</title>
<path fill="none" stroke="black" d="M181.61,-287.7C177.54,-279.98 172.64,-270.71 168.09,-262.11"/>
<polygon fill="black" stroke="black" points="171.28,-260.65 163.51,-253.44 165.09,-263.92 171.28,-260.65"/>
</g>
<!-- CorrectIlluminationCalculate_e3750f2a -->
<g id="node3" class="node">
<title>CorrectIlluminationCalculate_e3750f2a</title>
<polygon fill="lightblue" stroke="black" points="537.39,-324 318.14,-324 318.14,-288 537.39,-288 537.39,-324"/>
<text text-anchor="middle" x="427.76" y="-300.2" font-family="Helvetica,sans-Serif" font-weight="bold" font-size="14.00">CorrectIlluminationCalculate #3</text>
</g>
<!-- CorrectIlluminationCalculate_e3750f2a&#45;&gt;image__IllumBlueAvg -->
<g id="edge7" class="edge">
<title>CorrectIlluminationCalculate_e3750f2a&#45;&gt;image__IllumBlueAvg</title>
<path fill="none" stroke="black" d="M467.47,-287.52C490.37,-277.44 519.19,-264.75 542.77,-254.37"/>
<polygon fill="black" stroke="black" points="544.06,-257.62 551.81,-250.39 541.24,-251.21 544.06,-257.62"/>
</g>
<!-- CorrectIlluminationCalculate_e3750f2a&#45;&gt;image__IllumBlueDilated -->
<g id="edge8" class="edge">
<title>CorrectIlluminationCalculate_e3750f2a&#45;&gt;image__IllumBlueDilated</title>
<path fill="none" stroke="black" d="M427.76,-287.7C427.76,-280.41 427.76,-271.73 427.76,-263.54"/>
<polygon fill="black" stroke="black" points="431.26,-263.62 427.76,-253.62 424.26,-263.62 431.26,-263.62"/>
</g>
<!-- image__IllumDNA -->
<g id="node18" class="node">
<title>image__IllumDNA</title>
<ellipse fill="lightgray" stroke="black" cx="282.76" cy="-234" rx="51.35" ry="18"/>
<text text-anchor="middle" x="282.76" y="-228.95" font-family="Times,serif" font-size="14.00">IllumDNA</text>
</g>
<!-- CorrectIlluminationCalculate_e3750f2a&#45;&gt;image__IllumDNA -->
<g id="edge9" class="edge">
<title>CorrectIlluminationCalculate_e3750f2a&#45;&gt;image__IllumDNA</title>
<path fill="none" stroke="black" d="M391.55,-287.52C370.5,-277.35 343.95,-264.54 322.35,-254.11"/>
<polygon fill="black" stroke="black" points="324.08,-251.06 313.55,-249.86 321.04,-257.36 324.08,-251.06"/>
</g>
<!-- Resize_32606b38 -->
<g id="node4" class="node">
<title>Resize_32606b38</title>
<polygon fill="lightblue" stroke="black" points="466.51,-468 389.01,-468 389.01,-432 466.51,-432 466.51,-468"/>
<text text-anchor="middle" x="427.76" y="-444.2" font-family="Helvetica,sans-Serif" font-weight="bold" font-size="14.00">Resize #2</text>
</g>
<!-- image__DownsampledDNA -->
<g id="node13" class="node">
<title>image__DownsampledDNA</title>
<ellipse fill="lightgray" stroke="black" cx="427.76" cy="-378" rx="84.62" ry="18"/>
<text text-anchor="middle" x="427.76" y="-372.95" font-family="Times,serif" font-size="14.00">DownsampledDNA</text>
</g>
<!-- Resize_32606b38&#45;&gt;image__DownsampledDNA -->
<g id="edge10" class="edge">
<title>Resize_32606b38&#45;&gt;image__DownsampledDNA</title>
<path fill="none" stroke="black" d="M427.76,-431.7C427.76,-424.41 427.76,-415.73 427.76,-407.54"/>
<polygon fill="black" stroke="black" points="431.26,-407.62 427.76,-397.62 424.26,-407.62 431.26,-407.62"/>
</g>
<!-- Resize_6f9ec43f -->
<g id="node5" class="node">
<title>Resize_6f9ec43f</title>
<polygon fill="lightblue" stroke="black" points="154.26,-180 69.26,-180 69.26,-144 154.26,-144 154.26,-180"/>
<text text-anchor="middle" x="111.76" y="-156.2" font-family="Helvetica,sans-Serif" font-weight="bold" font-size="14.00">Resize #10</text>
</g>
<!-- image__UpsampledIllumZO1 -->
<g id="node26" class="node">
<title>image__UpsampledIllumZO1</title>
<ellipse fill="lightgray" stroke="black" cx="90.76" cy="-90" rx="90.76" ry="18"/>
<text text-anchor="middle" x="90.76" y="-84.95" font-family="Times,serif" font-size="14.00">UpsampledIllumZO1</text>
</g>
<!-- Resize_6f9ec43f&#45;&gt;image__UpsampledIllumZO1 -->
<g id="edge11" class="edge">
<title>Resize_6f9ec43f&#45;&gt;image__UpsampledIllumZO1</title>
<path fill="none" stroke="black" d="M106.57,-143.7C104.33,-136.24 101.66,-127.32 99.15,-118.97"/>
<polygon fill="black" stroke="black" points="102.55,-118.13 96.33,-109.55 95.85,-120.14 102.55,-118.13"/>
</g>
<!-- Resize_9779805 -->
<g id="node6" class="node">
<title>Resize_9779805</title>
<polygon fill="lightblue" stroke="black" points="703.51,-468 626.01,-468 626.01,-432 703.51,-432 703.51,-468"/>
<text text-anchor="middle" x="664.76" y="-444.2" font-family="Helvetica,sans-Serif" font-weight="bold" font-size="14.00">Resize #5</text>
</g>
<!-- image__DownsampledPhalloidin -->
<g id="node14" class="node">
<title>image__DownsampledPhalloidin</title>
<ellipse fill="lightgray" stroke="black" cx="664.76" cy="-378" rx="102.53" ry="18"/>
<text text-anchor="middle" x="664.76" y="-372.95" font-family="Times,serif" font-size="14.00">DownsampledPhalloidin</text>
</g>
<!-- Resize_9779805&#45;&gt;image__DownsampledPhalloidin -->
<g id="edge12" class="edge">
<title>Resize_9779805&#45;&gt;image__DownsampledPhalloidin</title>
<path fill="none" stroke="black" d="M664.76,-431.7C664.76,-424.41 664.76,-415.73 664.76,-407.54"/>
<polygon fill="black" stroke="black" points="668.26,-407.62 664.76,-397.62 661.26,-407.62 668.26,-407.62"/>
</g>
<!-- Resize_a3b11500 -->
<g id="node7" class="node">
<title>Resize_a3b11500</title>
<polygon fill="lightblue" stroke="black" points="326.51,-180 249.01,-180 249.01,-144 326.51,-144 326.51,-180"/>
<text text-anchor="middle" x="287.76" y="-156.2" font-family="Helvetica,sans-Serif" font-weight="bold" font-size="14.00">Resize #4</text>
</g>
<!-- image__UpsampledIllumDNA -->
<g id="node24" class="node">
<title>image__UpsampledIllumDNA</title>
<ellipse fill="lightgray" stroke="black" cx="293.76" cy="-90" rx="93.83" ry="18"/>
<text text-anchor="middle" x="293.76" y="-84.95" font-family="Times,serif" font-size="14.00">UpsampledIllumDNA</text>
</g>
<!-- Resize_a3b11500&#45;&gt;image__UpsampledIllumDNA -->
<g id="edge13" class="edge">
<title>Resize_a3b11500&#45;&gt;image__UpsampledIllumDNA</title>
<path fill="none" stroke="black" d="M289.24,-143.7C289.87,-136.41 290.61,-127.73 291.31,-119.54"/>
<polygon fill="black" stroke="black" points="294.8,-119.87 292.17,-109.61 287.82,-119.28 294.8,-119.87"/>
</g>
<!-- Resize_b00c8387 -->
<g id="node8" class="node">
<title>Resize_b00c8387</title>
<polygon fill="lightblue" stroke="black" points="229.51,-468 152.01,-468 152.01,-432 229.51,-432 229.51,-468"/>
<text text-anchor="middle" x="190.76" y="-444.2" font-family="Helvetica,sans-Serif" font-weight="bold" font-size="14.00">Resize #8</text>
</g>
<!-- image__DownsampledZO1 -->
<g id="node15" class="node">
<title>image__DownsampledZO1</title>
<ellipse fill="lightgray" stroke="black" cx="190.76" cy="-378" rx="81.55" ry="18"/>
<text text-anchor="middle" x="190.76" y="-372.95" font-family="Times,serif" font-size="14.00">DownsampledZO1</text>
</g>
<!-- Resize_b00c8387&#45;&gt;image__DownsampledZO1 -->
<g id="edge14" class="edge">
<title>Resize_b00c8387&#45;&gt;image__DownsampledZO1</title>
<path fill="none" stroke="black" d="M190.76,-431.7C190.76,-424.41 190.76,-415.73 190.76,-407.54"/>
<polygon fill="black" stroke="black" points="194.26,-407.62 190.76,-397.62 187.26,-407.62 194.26,-407.62"/>
</g>
<!-- Resize_fd94763b -->
<g id="node9" class="node">
<title>Resize_fd94763b</title>
<polygon fill="lightblue" stroke="black" points="777.51,-180 700.01,-180 700.01,-144 777.51,-144 777.51,-180"/>
<text text-anchor="middle" x="738.76" y="-156.2" font-family="Helvetica,sans-Serif" font-weight="bold" font-size="14.00">Resize #7</text>
</g>
<!-- image__UpsampledIllumPhalloidin -->
<g id="node25" class="node">
<title>image__UpsampledIllumPhalloidin</title>
<ellipse fill="lightgray" stroke="black" cx="738.76" cy="-90" rx="111.74" ry="18"/>
<text text-anchor="middle" x="738.76" y="-84.95" font-family="Times,serif" font-size="14.00">UpsampledIllumPhalloidin</text>
</g>
<!-- Resize_fd94763b&#45;&gt;image__UpsampledIllumPhalloidin -->
<g id="edge15" class="edge">
<title>Resize_fd94763b&#45;&gt;image__UpsampledIllumPhalloidin</title>
<path fill="none" stroke="black" d="M738.76,-143.7C738.76,-136.41 738.76,-127.73 738.76,-119.54"/>
<polygon fill="black" stroke="black" points="742.26,-119.62 738.76,-109.62 735.26,-119.62 742.26,-119.62"/>
</g>
<!-- SaveImages_392621f0 -->
<g id="node10" class="node">
<title>SaveImages_392621f0</title>
<polygon fill="lightblue" stroke="black" points="799.26,-36 678.26,-36 678.26,0 799.26,0 799.26,-36"/>
<text text-anchor="middle" x="738.76" y="-12.2" font-family="Helvetica,sans-Serif" font-weight="bold" font-size="14.00">SaveImages #11</text>
</g>
<!-- SaveImages_46180921 -->
<g id="node11" class="node">
<title>SaveImages_46180921</title>
<polygon fill="lightblue" stroke="black" points="151.26,-36 30.26,-36 30.26,0 151.26,0 151.26,-36"/>
<text text-anchor="middle" x="90.76" y="-12.2" font-family="Helvetica,sans-Serif" font-weight="bold" font-size="14.00">SaveImages #14</text>
</g>
<!-- SaveImages_4cf7a938 -->
<g id="node12" class="node">
<title>SaveImages_4cf7a938</title>
<polygon fill="lightblue" stroke="black" points="354.26,-36 233.26,-36 233.26,0 354.26,0 354.26,-36"/>
<text text-anchor="middle" x="293.76" y="-12.2" font-family="Helvetica,sans-Serif" font-weight="bold" font-size="14.00">SaveImages #12</text>
</g>
<!-- image__DownsampledDNA&#45;&gt;CorrectIlluminationCalculate_e3750f2a -->
<g id="edge16" class="edge">
<title>image__DownsampledDNA&#45;&gt;CorrectIlluminationCalculate_e3750f2a</title>
<path fill="none" stroke="black" d="M427.76,-359.7C427.76,-352.41 427.76,-343.73 427.76,-335.54"/>
<polygon fill="black" stroke="black" points="431.26,-335.62 427.76,-325.62 424.26,-335.62 431.26,-335.62"/>
</g>
<!-- image__DownsampledPhalloidin&#45;&gt;CorrectIlluminationCalculate_2ab137a7 -->
<g id="edge17" class="edge">
<title>image__DownsampledPhalloidin&#45;&gt;CorrectIlluminationCalculate_2ab137a7</title>
<path fill="none" stroke="black" d="M664.76,-359.7C664.76,-352.41 664.76,-343.73 664.76,-335.54"/>
<polygon fill="black" stroke="black" points="668.26,-335.62 664.76,-325.62 661.26,-335.62 668.26,-335.62"/>
</g>
<!-- image__DownsampledZO1&#45;&gt;CorrectIlluminationCalculate_cd0871b -->
<g id="edge18" class="edge">
<title>image__DownsampledZO1&#45;&gt;CorrectIlluminationCalculate_cd0871b</title>
<path fill="none" stroke="black" d="M190.76,-359.7C190.76,-352.41 190.76,-343.73 190.76,-335.54"/>
<polygon fill="black" stroke="black" points="194.26,-335.62 190.76,-325.62 187.26,-335.62 194.26,-335.62"/>
</g>
<!-- image__IllumDNA&#45;&gt;Resize_a3b11500 -->
<g id="edge19" class="edge">
<title>image__IllumDNA&#45;&gt;Resize_a3b11500</title>
<path fill="none" stroke="black" d="M284,-215.7C284.52,-208.41 285.14,-199.73 285.72,-191.54"/>
<polygon fill="black" stroke="black" points="289.21,-191.84 286.43,-181.61 282.23,-191.34 289.21,-191.84"/>
</g>
<!-- image__IllumPhalloidin&#45;&gt;Resize_fd94763b -->
<g id="edge20" class="edge">
<title>image__IllumPhalloidin&#45;&gt;Resize_fd94763b</title>
<path fill="none" stroke="black" d="M738.76,-215.7C738.76,-208.41 738.76,-199.73 738.76,-191.54"/>
<polygon fill="black" stroke="black" points="742.26,-191.62 738.76,-181.62 735.26,-191.62 742.26,-191.62"/>
</g>
<!-- image__IllumZO1&#45;&gt;Resize_6f9ec43f -->
<g id="edge21" class="edge">
<title>image__IllumZO1&#45;&gt;Resize_6f9ec43f</title>
<path fill="none" stroke="black" d="M143.59,-216.05C138.92,-208.26 133.25,-198.82 128.01,-190.08"/>
<polygon fill="black" stroke="black" points="131.05,-188.35 122.9,-181.57 125.05,-191.95 131.05,-188.35"/>
</g>
<!-- image__OrigDNA -->
<g id="node21" class="node">
<title>image__OrigDNA</title>
<ellipse fill="lightgray" stroke="black" cx="427.76" cy="-522" rx="47.77" ry="18"/>
<text text-anchor="middle" x="427.76" y="-516.95" font-family="Times,serif" font-size="14.00">OrigDNA</text>
</g>
<!-- image__OrigDNA&#45;&gt;Resize_32606b38 -->
<g id="edge22" class="edge">
<title>image__OrigDNA&#45;&gt;Resize_32606b38</title>
<path fill="none" stroke="black" d="M427.76,-503.7C427.76,-496.41 427.76,-487.73 427.76,-479.54"/>
<polygon fill="black" stroke="black" points="431.26,-479.62 427.76,-469.62 424.26,-479.62 431.26,-479.62"/>
</g>
<!-- image__OrigPhalloidin -->
<g id="node22" class="node">
<title>image__OrigPhalloidin</title>
<ellipse fill="lightgray" stroke="black" cx="664.76" cy="-522" rx="65.68" ry="18"/>
<text text-anchor="middle" x="664.76" y="-516.95" font-family="Times,serif" font-size="14.00">OrigPhalloidin</text>
</g>
<!-- image__OrigPhalloidin&#45;&gt;Resize_9779805 -->
<g id="edge23" class="edge">
<title>image__OrigPhalloidin&#45;&gt;Resize_9779805</title>
<path fill="none" stroke="black" d="M664.76,-503.7C664.76,-496.41 664.76,-487.73 664.76,-479.54"/>
<polygon fill="black" stroke="black" points="668.26,-479.62 664.76,-469.62 661.26,-479.62 668.26,-479.62"/>
</g>
<!-- image__OrigZO1 -->
<g id="node23" class="node">
<title>image__OrigZO1</title>
<ellipse fill="lightgray" stroke="black" cx="190.76" cy="-522" rx="44.7" ry="18"/>
<text text-anchor="middle" x="190.76" y="-516.95" font-family="Times,serif" font-size="14.00">OrigZO1</text>
</g>
<!-- image__OrigZO1&#45;&gt;Resize_b00c8387 -->
<g id="edge24" class="edge">
<title>image__OrigZO1&#45;&gt;Resize_b00c8387</title>
<path fill="none" stroke="black" d="M190.76,-503.7C190.76,-496.41 190.76,-487.73 190.76,-479.54"/>
<polygon fill="black" stroke="black" points="194.26,-479.62 190.76,-469.62 187.26,-479.62 194.26,-479.62"/>
</g>
<!-- image__UpsampledIllumDNA&#45;&gt;SaveImages_4cf7a938 -->
<g id="edge25" class="edge">
<title>image__UpsampledIllumDNA&#45;&gt;SaveImages_4cf7a938</title>
<path fill="none" stroke="black" d="M293.76,-71.7C293.76,-64.41 293.76,-55.73 293.76,-47.54"/>
<polygon fill="black" stroke="black" points="297.26,-47.62 293.76,-37.62 290.26,-47.62 297.26,-47.62"/>
</g>
<!-- image__UpsampledIllumPhalloidin&#45;&gt;SaveImages_392621f0 -->
<g id="edge26" class="edge">
<title>image__UpsampledIllumPhalloidin&#45;&gt;SaveImages_392621f0</title>
<path fill="none" stroke="black" d="M738.76,-71.7C738.76,-64.41 738.76,-55.73 738.76,-47.54"/>
<polygon fill="black" stroke="black" points="742.26,-47.62 738.76,-37.62 735.26,-47.62 742.26,-47.62"/>
</g>
<!-- image__UpsampledIllumZO1&#45;&gt;SaveImages_46180921 -->
<g id="edge27" class="edge">
<title>image__UpsampledIllumZO1&#45;&gt;SaveImages_46180921</title>
<path fill="none" stroke="black" d="M90.76,-71.7C90.76,-64.41 90.76,-55.73 90.76,-47.54"/>
<polygon fill="black" stroke="black" points="94.26,-47.62 90.76,-37.62 87.26,-47.62 94.26,-47.62"/>
</g>
</g>
</svg>
