<?xml version="1.0" encoding="UTF-8" standalone="no"?>
<!DOCTYPE svg PUBLIC "-//W3C//DTD SVG 1.1//EN"
 "http://www.w3.org/Graphics/SVG/1.1/DTD/svg11.dtd">
<!-- Generated by graphviz version 12.2.1 (20241206.2353)
 -->
<!-- Pages: 1 -->
<svg width="1191pt" height="548pt"
 viewBox="0.00 0.00 1191.00 548.00" xmlns="http://www.w3.org/2000/svg" xmlns:xlink="http://www.w3.org/1999/xlink">
<g id="graph0" class="graph" transform="scale(1 1) rotate(0) translate(4 544)">
<polygon fill="white" stroke="none" points="-4,4 -4,-544 1187,-544 1187,4 -4,4"/>
<!-- CorrectIlluminationCalculate_2d72f2ae -->
<g id="node1" class="node">
<title>CorrectIlluminationCalculate_2d72f2ae</title>
<polygon fill="lightblue" stroke="black" points="464,-324 237.25,-324 237.25,-288 464,-288 464,-324"/>
<text text-anchor="middle" x="350.62" y="-300.2" font-family="Helvetica,sans-Serif" font-weight="bold" font-size="14.00">CorrectIlluminationCalculate #15</text>
</g>
<!-- image__IllumBlueAvg -->
<g id="node27" class="node">
<title>image__IllumBlueAvg</title>
<ellipse fill="lightgray" stroke="black" cx="432.62" cy="-234" rx="64.66" ry="18"/>
<text text-anchor="middle" x="432.62" y="-228.95" font-family="Times,serif" font-size="14.00">IllumBlueAvg</text>
</g>
<!-- CorrectIlluminationCalculate_2d72f2ae&#45;&gt;image__IllumBlueAvg -->
<g id="edge1" class="edge">
<title>CorrectIlluminationCalculate_2d72f2ae&#45;&gt;image__IllumBlueAvg</title>
<path fill="none" stroke="black" d="M370.89,-287.7C381.07,-279.01 393.57,-268.34 404.64,-258.89"/>
<polygon fill="black" stroke="black" points="406.67,-261.76 412,-252.6 402.12,-256.44 406.67,-261.76"/>
</g>
<!-- image__IllumBlueDilated -->
<g id="node28" class="node">
<title>image__IllumBlueDilated</title>
<ellipse fill="lightgray" stroke="black" cx="591.62" cy="-234" rx="75.92" ry="18"/>
<text text-anchor="middle" x="591.62" y="-228.95" font-family="Times,serif" font-size="14.00">IllumBlueDilated</text>
</g>
<!-- CorrectIlluminationCalculate_2d72f2ae&#45;&gt;image__IllumBlueDilated -->
<g id="edge2" class="edge">
<title>CorrectIlluminationCalculate_2d72f2ae&#45;&gt;image__IllumBlueDilated</title>
<path fill="none" stroke="black" d="M410.82,-287.52C448.63,-276.53 497.12,-262.45 534.36,-251.63"/>
<polygon fill="black" stroke="black" points="534.96,-255.1 543.59,-248.95 533.01,-248.38 534.96,-255.1"/>
</g>
<!-- image__IllumT -->
<g id="node32" class="node">
<title>image__IllumT</title>
<ellipse fill="lightgray" stroke="black" cx="312.62" cy="-234" rx="37.02" ry="18"/>
<text text-anchor="middle" x="312.62" y="-228.95" font-family="Times,serif" font-size="14.00">IllumT</text>
</g>
<!-- CorrectIlluminationCalculate_2d72f2ae&#45;&gt;image__IllumT -->
<g id="edge3" class="edge">
<title>CorrectIlluminationCalculate_2d72f2ae&#45;&gt;image__IllumT</title>
<path fill="none" stroke="black" d="M341.23,-287.7C336.98,-279.87 331.86,-270.44 327.13,-261.73"/>
<polygon fill="black" stroke="black" points="330.22,-260.07 322.37,-252.95 324.07,-263.41 330.22,-260.07"/>
</g>
<!-- CorrectIlluminationCalculate_48bfbfe -->
<g id="node2" class="node">
<title>CorrectIlluminationCalculate_48bfbfe</title>
<polygon fill="lightblue" stroke="black" points="219.25,-324 0,-324 0,-288 219.25,-288 219.25,-324"/>
<text text-anchor="middle" x="109.62" y="-300.2" font-family="Helvetica,sans-Serif" font-weight="bold" font-size="14.00">CorrectIlluminationCalculate #3</text>
</g>
<!-- CorrectIlluminationCalculate_48bfbfe&#45;&gt;image__IllumBlueAvg -->
<g id="edge4" class="edge">
<title>CorrectIlluminationCalculate_48bfbfe&#45;&gt;image__IllumBlueAvg</title>
<path fill="none" stroke="black" d="M193.27,-287.55C241.62,-277.37 303.6,-264.17 358.62,-252 363.26,-250.97 368.05,-249.9 372.87,-248.81"/>
<polygon fill="black" stroke="black" points="373.63,-252.23 382.61,-246.6 372.08,-245.4 373.63,-252.23"/>
</g>
<!-- CorrectIlluminationCalculate_48bfbfe&#45;&gt;image__IllumBlueDilated -->
<g id="edge5" class="edge">
<title>CorrectIlluminationCalculate_48bfbfe&#45;&gt;image__IllumBlueDilated</title>
<path fill="none" stroke="black" d="M219.52,-289.25C222.59,-288.82 225.63,-288.41 228.62,-288 352.07,-271.19 383.69,-272.23 506.62,-252 512.66,-251.01 518.92,-249.9 525.18,-248.74"/>
<polygon fill="black" stroke="black" points="525.74,-252.2 534.91,-246.9 524.44,-245.32 525.74,-252.2"/>
</g>
<!-- image__IllumDNA -->
<g id="node30" class="node">
<title>image__IllumDNA</title>
<ellipse fill="lightgray" stroke="black" cx="109.62" cy="-234" rx="51.35" ry="18"/>
<text text-anchor="middle" x="109.62" y="-228.95" font-family="Times,serif" font-size="14.00">IllumDNA</text>
</g>
<!-- CorrectIlluminationCalculate_48bfbfe&#45;&gt;image__IllumDNA -->
<g id="edge6" class="edge">
<title>CorrectIlluminationCalculate_48bfbfe&#45;&gt;image__IllumDNA</title>
<path fill="none" stroke="black" d="M109.62,-287.7C109.62,-280.41 109.62,-271.73 109.62,-263.54"/>
<polygon fill="black" stroke="black" points="113.13,-263.62 109.63,-253.62 106.13,-263.62 113.13,-263.62"/>
</g>
<!-- CorrectIlluminationCalculate_639d3b56 -->
<g id="node3" class="node">
<title>CorrectIlluminationCalculate_639d3b56</title>
<polygon fill="lightblue" stroke="black" points="701.25,-324 482,-324 482,-288 701.25,-288 701.25,-324"/>
<text text-anchor="middle" x="591.62" y="-300.2" font-family="Helvetica,sans-Serif" font-weight="bold" font-size="14.00">CorrectIlluminationCalculate #9</text>
</g>
<!-- CorrectIlluminationCalculate_639d3b56&#45;&gt;image__IllumBlueAvg -->
<g id="edge7" class="edge">
<title>CorrectIlluminationCalculate_639d3b56&#45;&gt;image__IllumBlueAvg</title>
<path fill="none" stroke="black" d="M551.91,-287.52C529.02,-277.44 500.2,-264.75 476.62,-254.37"/>
<polygon fill="black" stroke="black" points="478.14,-251.21 467.58,-250.39 475.32,-257.62 478.14,-251.21"/>
</g>
<!-- CorrectIlluminationCalculate_639d3b56&#45;&gt;image__IllumBlueDilated -->
<g id="edge8" class="edge">
<title>CorrectIlluminationCalculate_639d3b56&#45;&gt;image__IllumBlueDilated</title>
<path fill="none" stroke="black" d="M591.62,-287.7C591.62,-280.41 591.62,-271.73 591.62,-263.54"/>
<polygon fill="black" stroke="black" points="595.13,-263.62 591.63,-253.62 588.13,-263.62 595.13,-263.62"/>
</g>
<!-- image__IllumC -->
<g id="node29" class="node">
<title>image__IllumC</title>
<ellipse fill="lightgray" stroke="black" cx="722.62" cy="-234" rx="37.53" ry="18"/>
<text text-anchor="middle" x="722.62" y="-228.95" font-family="Times,serif" font-size="14.00">IllumC</text>
</g>
<!-- CorrectIlluminationCalculate_639d3b56&#45;&gt;image__IllumC -->
<g id="edge9" class="edge">
<title>CorrectIlluminationCalculate_639d3b56&#45;&gt;image__IllumC</title>
<path fill="none" stroke="black" d="M624.34,-287.52C643.74,-277.15 668.31,-264.02 688.03,-253.48"/>
<polygon fill="black" stroke="black" points="689.63,-256.6 696.8,-248.8 686.33,-250.42 689.63,-256.6"/>
</g>
<!-- CorrectIlluminationCalculate_78e9c4e3 -->
<g id="node4" class="node">
<title>CorrectIlluminationCalculate_78e9c4e3</title>
<polygon fill="lightblue" stroke="black" points="1183,-324 956.25,-324 956.25,-288 1183,-288 1183,-324"/>
<text text-anchor="middle" x="1069.62" y="-300.2" font-family="Helvetica,sans-Serif" font-weight="bold" font-size="14.00">CorrectIlluminationCalculate #12</text>
</g>
<!-- CorrectIlluminationCalculate_78e9c4e3&#45;&gt;image__IllumBlueAvg -->
<g id="edge10" class="edge">
<title>CorrectIlluminationCalculate_78e9c4e3&#45;&gt;image__IllumBlueAvg</title>
<path fill="none" stroke="black" d="M956.01,-288.95C953.19,-288.62 950.39,-288.31 947.62,-288 752.16,-266.42 700.96,-282.09 506.62,-252 501.37,-251.19 495.92,-250.21 490.49,-249.13"/>
<polygon fill="black" stroke="black" points="491.39,-245.74 480.89,-247.13 489.96,-252.6 491.39,-245.74"/>
</g>
<!-- CorrectIlluminationCalculate_78e9c4e3&#45;&gt;image__IllumBlueDilated -->
<g id="edge11" class="edge">
<title>CorrectIlluminationCalculate_78e9c4e3&#45;&gt;image__IllumBlueDilated</title>
<path fill="none" stroke="black" d="M955.98,-289.14C953.17,-288.75 950.38,-288.37 947.62,-288 826.79,-271.59 795.9,-272.11 675.62,-252 669.75,-251.02 663.67,-249.93 657.58,-248.79"/>
<polygon fill="black" stroke="black" points="658.62,-245.42 648.14,-246.98 657.3,-252.3 658.62,-245.42"/>
</g>
<!-- image__IllumG -->
<g id="node31" class="node">
<title>image__IllumG</title>
<ellipse fill="lightgray" stroke="black" cx="1069.62" cy="-234" rx="38.04" ry="18"/>
<text text-anchor="middle" x="1069.62" y="-228.95" font-family="Times,serif" font-size="14.00">IllumG</text>
</g>
<!-- CorrectIlluminationCalculate_78e9c4e3&#45;&gt;image__IllumG -->
<g id="edge12" class="edge">
<title>CorrectIlluminationCalculate_78e9c4e3&#45;&gt;image__IllumG</title>
<path fill="none" stroke="black" d="M1069.62,-287.7C1069.62,-280.41 1069.62,-271.73 1069.62,-263.54"/>
<polygon fill="black" stroke="black" points="1073.13,-263.62 1069.63,-253.62 1066.13,-263.62 1073.13,-263.62"/>
</g>
<!-- CorrectIlluminationCalculate_d5dc8a9b -->
<g id="node5" class="node">
<title>CorrectIlluminationCalculate_d5dc8a9b</title>
<polygon fill="lightblue" stroke="black" points="938.25,-324 719,-324 719,-288 938.25,-288 938.25,-324"/>
<text text-anchor="middle" x="828.62" y="-300.2" font-family="Helvetica,sans-Serif" font-weight="bold" font-size="14.00">CorrectIlluminationCalculate #6</text>
</g>
<!-- image__IllumA -->
<g id="node26" class="node">
<title>image__IllumA</title>
<ellipse fill="lightgray" stroke="black" cx="833.62" cy="-234" rx="38.04" ry="18"/>
<text text-anchor="middle" x="833.62" y="-228.95" font-family="Times,serif" font-size="14.00">IllumA</text>
</g>
<!-- CorrectIlluminationCalculate_d5dc8a9b&#45;&gt;image__IllumA -->
<g id="edge13" class="edge">
<title>CorrectIlluminationCalculate_d5dc8a9b&#45;&gt;image__IllumA</title>
<path fill="none" stroke="black" d="M829.86,-287.7C830.38,-280.41 831,-271.73 831.59,-263.54"/>
<polygon fill="black" stroke="black" points="835.07,-263.84 832.3,-253.61 828.09,-263.34 835.07,-263.84"/>
</g>
<!-- CorrectIlluminationCalculate_d5dc8a9b&#45;&gt;image__IllumBlueAvg -->
<g id="edge14" class="edge">
<title>CorrectIlluminationCalculate_d5dc8a9b&#45;&gt;image__IllumBlueAvg</title>
<path fill="none" stroke="black" d="M718.78,-288.67C656.39,-278.95 576.94,-265.85 506.62,-252 501.69,-251.03 496.58,-249.97 491.46,-248.87"/>
<polygon fill="black" stroke="black" points="492.3,-245.47 481.78,-246.74 490.79,-252.3 492.3,-245.47"/>
</g>
<!-- CorrectIlluminationCalculate_d5dc8a9b&#45;&gt;image__IllumBlueDilated -->
<g id="edge15" class="edge">
<title>CorrectIlluminationCalculate_d5dc8a9b&#45;&gt;image__IllumBlueDilated</title>
<path fill="none" stroke="black" d="M769.43,-287.52C732.53,-276.62 685.29,-262.66 648.78,-251.88"/>
<polygon fill="black" stroke="black" points="649.85,-248.55 639.26,-249.07 647.86,-255.26 649.85,-248.55"/>
</g>
<!-- Resize_24c09659 -->
<g id="node6" class="node">
<title>Resize_24c09659</title>
<polygon fill="lightblue" stroke="black" points="1112.12,-468 1027.12,-468 1027.12,-432 1112.12,-432 1112.12,-468"/>
<text text-anchor="middle" x="1069.62" y="-444.2" font-family="Helvetica,sans-Serif" font-weight="bold" font-size="14.00">Resize #11</text>
</g>
<!-- image__DownsampledG -->
<g id="node24" class="node">
<title>image__DownsampledG</title>
<ellipse fill="lightgray" stroke="black" cx="1069.62" cy="-378" rx="71.31" ry="18"/>
<text text-anchor="middle" x="1069.62" y="-372.95" font-family="Times,serif" font-size="14.00">DownsampledG</text>
</g>
<!-- Resize_24c09659&#45;&gt;image__DownsampledG -->
<g id="edge16" class="edge">
<title>Resize_24c09659&#45;&gt;image__DownsampledG</title>
<path fill="none" stroke="black" d="M1069.62,-431.7C1069.62,-424.41 1069.62,-415.73 1069.62,-407.54"/>
<polygon fill="black" stroke="black" points="1073.13,-407.62 1069.63,-397.62 1066.13,-407.62 1073.13,-407.62"/>
</g>
<!-- Resize_258abbb8 -->
<g id="node7" class="node">
<title>Resize_258abbb8</title>
<polygon fill="lightblue" stroke="black" points="630.38,-468 552.88,-468 552.88,-432 630.38,-432 630.38,-468"/>
<text text-anchor="middle" x="591.62" y="-444.2" font-family="Helvetica,sans-Serif" font-weight="bold" font-size="14.00">Resize #8</text>
</g>
<!-- image__DownsampledC -->
<g id="node22" class="node">
<title>image__DownsampledC</title>
<ellipse fill="lightgray" stroke="black" cx="591.62" cy="-378" rx="70.8" ry="18"/>
<text text-anchor="middle" x="591.62" y="-372.95" font-family="Times,serif" font-size="14.00">DownsampledC</text>
</g>
<!-- Resize_258abbb8&#45;&gt;image__DownsampledC -->
<g id="edge17" class="edge">
<title>Resize_258abbb8&#45;&gt;image__DownsampledC</title>
<path fill="none" stroke="black" d="M591.62,-431.7C591.62,-424.41 591.62,-415.73 591.62,-407.54"/>
<polygon fill="black" stroke="black" points="595.13,-407.62 591.63,-397.62 588.13,-407.62 595.13,-407.62"/>
</g>
<!-- Resize_6b41a479 -->
<g id="node8" class="node">
<title>Resize_6b41a479</title>
<polygon fill="lightblue" stroke="black" points="882.38,-180 804.88,-180 804.88,-144 882.38,-144 882.38,-180"/>
<text text-anchor="middle" x="843.62" y="-156.2" font-family="Helvetica,sans-Serif" font-weight="bold" font-size="14.00">Resize #7</text>
</g>
<!-- image__UpsampledIllumA -->
<g id="node38" class="node">
<title>image__UpsampledIllumA</title>
<ellipse fill="lightgray" stroke="black" cx="874.62" cy="-90" rx="80.52" ry="18"/>
<text text-anchor="middle" x="874.62" y="-84.95" font-family="Times,serif" font-size="14.00">UpsampledIllumA</text>
</g>
<!-- Resize_6b41a479&#45;&gt;image__UpsampledIllumA -->
<g id="edge18" class="edge">
<title>Resize_6b41a479&#45;&gt;image__UpsampledIllumA</title>
<path fill="none" stroke="black" d="M851.29,-143.7C854.67,-136.07 858.72,-126.92 862.49,-118.4"/>
<polygon fill="black" stroke="black" points="865.59,-120.05 866.44,-109.49 859.19,-117.21 865.59,-120.05"/>
</g>
<!-- Resize_775969be -->
<g id="node9" class="node">
<title>Resize_775969be</title>
<polygon fill="lightblue" stroke="black" points="355.12,-180 270.12,-180 270.12,-144 355.12,-144 355.12,-180"/>
<text text-anchor="middle" x="312.62" y="-156.2" font-family="Helvetica,sans-Serif" font-weight="bold" font-size="14.00">Resize #16</text>
</g>
<!-- image__UpsampledIllumT -->
<g id="node42" class="node">
<title>image__UpsampledIllumT</title>
<ellipse fill="lightgray" stroke="black" cx="312.62" cy="-90" rx="79.5" ry="18"/>
<text text-anchor="middle" x="312.62" y="-84.95" font-family="Times,serif" font-size="14.00">UpsampledIllumT</text>
</g>
<!-- Resize_775969be&#45;&gt;image__UpsampledIllumT -->
<g id="edge19" class="edge">
<title>Resize_775969be&#45;&gt;image__UpsampledIllumT</title>
<path fill="none" stroke="black" d="M312.62,-143.7C312.62,-136.41 312.62,-127.73 312.62,-119.54"/>
<polygon fill="black" stroke="black" points="316.13,-119.62 312.63,-109.62 309.13,-119.62 316.13,-119.62"/>
</g>
<!-- Resize_a735fc42 -->
<g id="node10" class="node">
<title>Resize_a735fc42</title>
<polygon fill="lightblue" stroke="black" points="1112.12,-180 1027.12,-180 1027.12,-144 1112.12,-144 1112.12,-180"/>
<text text-anchor="middle" x="1069.62" y="-156.2" font-family="Helvetica,sans-Serif" font-weight="bold" font-size="14.00">Resize #13</text>
</g>
<!-- image__UpsampledIllumG -->
<g id="node41" class="node">
<title>image__UpsampledIllumG</title>
<ellipse fill="lightgray" stroke="black" cx="1069.62" cy="-90" rx="80.52" ry="18"/>
<text text-anchor="middle" x="1069.62" y="-84.95" font-family="Times,serif" font-size="14.00">UpsampledIllumG</text>
</g>
<!-- Resize_a735fc42&#45;&gt;image__UpsampledIllumG -->
<g id="edge20" class="edge">
<title>Resize_a735fc42&#45;&gt;image__UpsampledIllumG</title>
<path fill="none" stroke="black" d="M1069.62,-143.7C1069.62,-136.41 1069.62,-127.73 1069.62,-119.54"/>
<polygon fill="black" stroke="black" points="1073.13,-119.62 1069.63,-109.62 1066.13,-119.62 1073.13,-119.62"/>
</g>
<!-- Resize_ba4eb4d7 -->
<g id="node11" class="node">
<title>Resize_ba4eb4d7</title>
<polygon fill="lightblue" stroke="black" points="148.38,-180 70.88,-180 70.88,-144 148.38,-144 148.38,-180"/>
<text text-anchor="middle" x="109.62" y="-156.2" font-family="Helvetica,sans-Serif" font-weight="bold" font-size="14.00">Resize #4</text>
</g>
<!-- image__UpsampledIllumDNA -->
<g id="node40" class="node">
<title>image__UpsampledIllumDNA</title>
<ellipse fill="lightgray" stroke="black" cx="109.62" cy="-90" rx="93.83" ry="18"/>
<text text-anchor="middle" x="109.62" y="-84.95" font-family="Times,serif" font-size="14.00">UpsampledIllumDNA</text>
</g>
<!-- Resize_ba4eb4d7&#45;&gt;image__UpsampledIllumDNA -->
<g id="edge21" class="edge">
<title>Resize_ba4eb4d7&#45;&gt;image__UpsampledIllumDNA</title>
<path fill="none" stroke="black" d="M109.62,-143.7C109.62,-136.41 109.62,-127.73 109.62,-119.54"/>
<polygon fill="black" stroke="black" points="113.13,-119.62 109.63,-109.62 106.13,-119.62 113.13,-119.62"/>
</g>
<!-- Resize_d37ce976 -->
<g id="node12" class="node">
<title>Resize_d37ce976</title>
<polygon fill="lightblue" stroke="black" points="759.12,-180 674.12,-180 674.12,-144 759.12,-144 759.12,-180"/>
<text text-anchor="middle" x="716.62" y="-156.2" font-family="Helvetica,sans-Serif" font-weight="bold" font-size="14.00">Resize #10</text>
</g>
<!-- image__UpsampledIllumC -->
<g id="node39" class="node">
<title>image__UpsampledIllumC</title>
<ellipse fill="lightgray" stroke="black" cx="695.62" cy="-90" rx="80.01" ry="18"/>
<text text-anchor="middle" x="695.62" y="-84.95" font-family="Times,serif" font-size="14.00">UpsampledIllumC</text>
</g>
<!-- Resize_d37ce976&#45;&gt;image__UpsampledIllumC -->
<g id="edge22" class="edge">
<title>Resize_d37ce976&#45;&gt;image__UpsampledIllumC</title>
<path fill="none" stroke="black" d="M711.43,-143.7C709.2,-136.24 706.52,-127.32 704.01,-118.97"/>
<polygon fill="black" stroke="black" points="707.42,-118.13 701.19,-109.55 700.71,-120.14 707.42,-118.13"/>
</g>
<!-- Resize_e54f725d -->
<g id="node13" class="node">
<title>Resize_e54f725d</title>
<polygon fill="lightblue" stroke="black" points="393.12,-468 308.12,-468 308.12,-432 393.12,-432 393.12,-468"/>
<text text-anchor="middle" x="350.62" y="-444.2" font-family="Helvetica,sans-Serif" font-weight="bold" font-size="14.00">Resize #14</text>
</g>
<!-- image__DownsampledT -->
<g id="node25" class="node">
<title>image__DownsampledT</title>
<ellipse fill="lightgray" stroke="black" cx="350.62" cy="-378" rx="70.29" ry="18"/>
<text text-anchor="middle" x="350.62" y="-372.95" font-family="Times,serif" font-size="14.00">DownsampledT</text>
</g>
<!-- Resize_e54f725d&#45;&gt;image__DownsampledT -->
<g id="edge23" class="edge">
<title>Resize_e54f725d&#45;&gt;image__DownsampledT</title>
<path fill="none" stroke="black" d="M350.62,-431.7C350.62,-424.41 350.62,-415.73 350.62,-407.54"/>
<polygon fill="black" stroke="black" points="354.13,-407.62 350.63,-397.62 347.13,-407.62 354.13,-407.62"/>
</g>
<!-- Resize_eaf2291a -->
<g id="node14" class="node">
<title>Resize_eaf2291a</title>
<polygon fill="lightblue" stroke="black" points="148.38,-468 70.88,-468 70.88,-432 148.38,-432 148.38,-468"/>
<text text-anchor="middle" x="109.62" y="-444.2" font-family="Helvetica,sans-Serif" font-weight="bold" font-size="14.00">Resize #2</text>
</g>
<!-- image__DownsampledDNA -->
<g id="node23" class="node">
<title>image__DownsampledDNA</title>
<ellipse fill="lightgray" stroke="black" cx="109.62" cy="-378" rx="84.62" ry="18"/>
<text text-anchor="middle" x="109.62" y="-372.95" font-family="Times,serif" font-size="14.00">DownsampledDNA</text>
</g>
<!-- Resize_eaf2291a&#45;&gt;image__DownsampledDNA -->
<g id="edge24" class="edge">
<title>Resize_eaf2291a&#45;&gt;image__DownsampledDNA</title>
<path fill="none" stroke="black" d="M109.62,-431.7C109.62,-424.41 109.62,-415.73 109.62,-407.54"/>
<polygon fill="black" stroke="black" points="113.13,-407.62 109.63,-397.62 106.13,-407.62 113.13,-407.62"/>
</g>
<!-- Resize_ed5d2d5e -->
<g id="node15" class="node">
<title>Resize_ed5d2d5e</title>
<polygon fill="lightblue" stroke="black" points="867.38,-468 789.88,-468 789.88,-432 867.38,-432 867.38,-468"/>
<text text-anchor="middle" x="828.62" y="-444.2" font-family="Helvetica,sans-Serif" font-weight="bold" font-size="14.00">Resize #5</text>
</g>
<!-- image__DownsampledA -->
<g id="node21" class="node">
<title>image__DownsampledA</title>
<ellipse fill="lightgray" stroke="black" cx="828.62" cy="-378" rx="71.31" ry="18"/>
<text text-anchor="middle" x="828.62" y="-372.95" font-family="Times,serif" font-size="14.00">DownsampledA</text>
</g>
<!-- Resize_ed5d2d5e&#45;&gt;image__DownsampledA -->
<g id="edge25" class="edge">
<title>Resize_ed5d2d5e&#45;&gt;image__DownsampledA</title>
<path fill="none" stroke="black" d="M828.62,-431.7C828.62,-424.41 828.62,-415.73 828.62,-407.54"/>
<polygon fill="black" stroke="black" points="832.13,-407.62 828.63,-397.62 825.13,-407.62 832.13,-407.62"/>
</g>
<!-- SaveImages_22c568ca -->
<g id="node16" class="node">
<title>SaveImages_22c568ca</title>
<polygon fill="lightblue" stroke="black" points="756.12,-36 635.12,-36 635.12,0 756.12,0 756.12,-36"/>
<text text-anchor="middle" x="695.62" y="-12.2" font-family="Helvetica,sans-Serif" font-weight="bold" font-size="14.00">SaveImages #19</text>
</g>
<!-- SaveImages_3a1994a7 -->
<g id="node17" class="node">
<title>SaveImages_3a1994a7</title>
<polygon fill="lightblue" stroke="black" points="373.12,-36 252.12,-36 252.12,0 373.12,0 373.12,-36"/>
<text text-anchor="middle" x="312.62" y="-12.2" font-family="Helvetica,sans-Serif" font-weight="bold" font-size="14.00">SaveImages #21</text>
</g>
<!-- SaveImages_bf727218 -->
<g id="node18" class="node">
<title>SaveImages_bf727218</title>
<polygon fill="lightblue" stroke="black" points="170.12,-36 49.12,-36 49.12,0 170.12,0 170.12,-36"/>
<text text-anchor="middle" x="109.62" y="-12.2" font-family="Helvetica,sans-Serif" font-weight="bold" font-size="14.00">SaveImages #18</text>
</g>
<!-- SaveImages_e2526f42 -->
<g id="node19" class="node">
<title>SaveImages_e2526f42</title>
<polygon fill="lightblue" stroke="black" points="1130.12,-36 1009.12,-36 1009.12,0 1130.12,0 1130.12,-36"/>
<text text-anchor="middle" x="1069.62" y="-12.2" font-family="Helvetica,sans-Serif" font-weight="bold" font-size="14.00">SaveImages #20</text>
</g>
<!-- SaveImages_f99bd8e8 -->
<g id="node20" class="node">
<title>SaveImages_f99bd8e8</title>
<polygon fill="lightblue" stroke="black" points="935.12,-36 814.12,-36 814.12,0 935.12,0 935.12,-36"/>
<text text-anchor="middle" x="874.62" y="-12.2" font-family="Helvetica,sans-Serif" font-weight="bold" font-size="14.00">SaveImages #17</text>
</g>
<!-- image__DownsampledA&#45;&gt;CorrectIlluminationCalculate_d5dc8a9b -->
<g id="edge26" class="edge">
<title>image__DownsampledA&#45;&gt;CorrectIlluminationCalculate_d5dc8a9b</title>
<path fill="none" stroke="black" d="M828.62,-359.7C828.62,-352.41 828.62,-343.73 828.62,-335.54"/>
<polygon fill="black" stroke="black" points="832.13,-335.62 828.63,-325.62 825.13,-335.62 832.13,-335.62"/>
</g>
<!-- image__DownsampledC&#45;&gt;CorrectIlluminationCalculate_639d3b56 -->
<g id="edge27" class="edge">
<title>image__DownsampledC&#45;&gt;CorrectIlluminationCalculate_639d3b56</title>
<path fill="none" stroke="black" d="M591.62,-359.7C591.62,-352.41 591.62,-343.73 591.62,-335.54"/>
<polygon fill="black" stroke="black" points="595.13,-335.62 591.63,-325.62 588.13,-335.62 595.13,-335.62"/>
</g>
<!-- image__DownsampledDNA&#45;&gt;CorrectIlluminationCalculate_48bfbfe -->
<g id="edge28" class="edge">
<title>image__DownsampledDNA&#45;&gt;CorrectIlluminationCalculate_48bfbfe</title>
<path fill="none" stroke="black" d="M109.62,-359.7C109.62,-352.41 109.62,-343.73 109.62,-335.54"/>
<polygon fill="black" stroke="black" points="113.13,-335.62 109.63,-325.62 106.13,-335.62 113.13,-335.62"/>
</g>
<!-- image__DownsampledG&#45;&gt;CorrectIlluminationCalculate_78e9c4e3 -->
<g id="edge29" class="edge">
<title>image__DownsampledG&#45;&gt;CorrectIlluminationCalculate_78e9c4e3</title>
<path fill="none" stroke="black" d="M1069.62,-359.7C1069.62,-352.41 1069.62,-343.73 1069.62,-335.54"/>
<polygon fill="black" stroke="black" points="1073.13,-335.62 1069.63,-325.62 1066.13,-335.62 1073.13,-335.62"/>
</g>
<!-- image__DownsampledT&#45;&gt;CorrectIlluminationCalculate_2d72f2ae -->
<g id="edge30" class="edge">
<title>image__DownsampledT&#45;&gt;CorrectIlluminationCalculate_2d72f2ae</title>
<path fill="none" stroke="black" d="M350.62,-359.7C350.62,-352.41 350.62,-343.73 350.62,-335.54"/>
<polygon fill="black" stroke="black" points="354.13,-335.62 350.63,-325.62 347.13,-335.62 354.13,-335.62"/>
</g>
<!-- image__IllumA&#45;&gt;Resize_6b41a479 -->
<g id="edge31" class="edge">
<title>image__IllumA&#45;&gt;Resize_6b41a479</title>
<path fill="none" stroke="black" d="M836.1,-215.7C837.15,-208.32 838.41,-199.52 839.59,-191.25"/>
<polygon fill="black" stroke="black" points="843.02,-192 840.97,-181.6 836.09,-191.01 843.02,-192"/>
</g>
<!-- image__IllumC&#45;&gt;Resize_d37ce976 -->
<g id="edge32" class="edge">
<title>image__IllumC&#45;&gt;Resize_d37ce976</title>
<path fill="none" stroke="black" d="M721.14,-215.7C720.52,-208.41 719.77,-199.73 719.07,-191.54"/>
<polygon fill="black" stroke="black" points="722.56,-191.28 718.22,-181.61 715.59,-191.87 722.56,-191.28"/>
</g>
<!-- image__IllumDNA&#45;&gt;Resize_ba4eb4d7 -->
<g id="edge33" class="edge">
<title>image__IllumDNA&#45;&gt;Resize_ba4eb4d7</title>
<path fill="none" stroke="black" d="M109.62,-215.7C109.62,-208.41 109.62,-199.73 109.62,-191.54"/>
<polygon fill="black" stroke="black" points="113.13,-191.62 109.63,-181.62 106.13,-191.62 113.13,-191.62"/>
</g>
<!-- image__IllumG&#45;&gt;Resize_a735fc42 -->
<g id="edge34" class="edge">
<title>image__IllumG&#45;&gt;Resize_a735fc42</title>
<path fill="none" stroke="black" d="M1069.62,-215.7C1069.62,-208.41 1069.62,-199.73 1069.62,-191.54"/>
<polygon fill="black" stroke="black" points="1073.13,-191.62 1069.63,-181.62 1066.13,-191.62 1073.13,-191.62"/>
</g>
<!-- image__IllumT&#45;&gt;Resize_775969be -->
<g id="edge35" class="edge">
<title>image__IllumT&#45;&gt;Resize_775969be</title>
<path fill="none" stroke="black" d="M312.62,-215.7C312.62,-208.41 312.62,-199.73 312.62,-191.54"/>
<polygon fill="black" stroke="black" points="316.13,-191.62 312.63,-181.62 309.13,-191.62 316.13,-191.62"/>
</g>
<!-- image__OrigA -->
<g id="node33" class="node">
<title>image__OrigA</title>
<ellipse fill="lightgray" stroke="black" cx="828.62" cy="-522" rx="34.46" ry="18"/>
<text text-anchor="middle" x="828.62" y="-516.95" font-family="Times,serif" font-size="14.00">OrigA</text>
</g>
<!-- image__OrigA&#45;&gt;Resize_ed5d2d5e -->
<g id="edge36" class="edge">
<title>image__OrigA&#45;&gt;Resize_ed5d2d5e</title>
<path fill="none" stroke="black" d="M828.62,-503.7C828.62,-496.41 828.62,-487.73 828.62,-479.54"/>
<polygon fill="black" stroke="black" points="832.13,-479.62 828.63,-469.62 825.13,-479.62 832.13,-479.62"/>
</g>
<!-- image__OrigC -->
<g id="node34" class="node">
<title>image__OrigC</title>
<ellipse fill="lightgray" stroke="black" cx="591.62" cy="-522" rx="33.95" ry="18"/>
<text text-anchor="middle" x="591.62" y="-516.95" font-family="Times,serif" font-size="14.00">OrigC</text>
</g>
<!-- image__OrigC&#45;&gt;Resize_258abbb8 -->
<g id="edge37" class="edge">
<title>image__OrigC&#45;&gt;Resize_258abbb8</title>
<path fill="none" stroke="black" d="M591.62,-503.7C591.62,-496.41 591.62,-487.73 591.62,-479.54"/>
<polygon fill="black" stroke="black" points="595.13,-479.62 591.63,-469.62 588.13,-479.62 595.13,-479.62"/>
</g>
<!-- image__OrigDNA -->
<g id="node35" class="node">
<title>image__OrigDNA</title>
<ellipse fill="lightgray" stroke="black" cx="109.62" cy="-522" rx="47.77" ry="18"/>
<text text-anchor="middle" x="109.62" y="-516.95" font-family="Times,serif" font-size="14.00">OrigDNA</text>
</g>
<!-- image__OrigDNA&#45;&gt;Resize_eaf2291a -->
<g id="edge38" class="edge">
<title>image__OrigDNA&#45;&gt;Resize_eaf2291a</title>
<path fill="none" stroke="black" d="M109.62,-503.7C109.62,-496.41 109.62,-487.73 109.62,-479.54"/>
<polygon fill="black" stroke="black" points="113.13,-479.62 109.63,-469.62 106.13,-479.62 113.13,-479.62"/>
</g>
<!-- image__OrigG -->
<g id="node36" class="node">
<title>image__OrigG</title>
<ellipse fill="lightgray" stroke="black" cx="1069.62" cy="-522" rx="34.46" ry="18"/>
<text text-anchor="middle" x="1069.62" y="-516.95" font-family="Times,serif" font-size="14.00">OrigG</text>
</g>
<!-- image__OrigG&#45;&gt;Resize_24c09659 -->
<g id="edge39" class="edge">
<title>image__OrigG&#45;&gt;Resize_24c09659</title>
<path fill="none" stroke="black" d="M1069.62,-503.7C1069.62,-496.41 1069.62,-487.73 1069.62,-479.54"/>
<polygon fill="black" stroke="black" points="1073.13,-479.62 1069.63,-469.62 1066.13,-479.62 1073.13,-479.62"/>
</g>
<!-- image__OrigT -->
<g id="node37" class="node">
<title>image__OrigT</title>
<ellipse fill="lightgray" stroke="black" cx="350.62" cy="-522" rx="33.44" ry="18"/>
<text text-anchor="middle" x="350.62" y="-516.95" font-family="Times,serif" font-size="14.00">OrigT</text>
</g>
<!-- image__OrigT&#45;&gt;Resize_e54f725d -->
<g id="edge40" class="edge">
<title>image__OrigT&#45;&gt;Resize_e54f725d</title>
<path fill="none" stroke="black" d="M350.62,-503.7C350.62,-496.41 350.62,-487.73 350.62,-479.54"/>
<polygon fill="black" stroke="black" points="354.13,-479.62 350.63,-469.62 347.13,-479.62 354.13,-479.62"/>
</g>
<!-- image__UpsampledIllumA&#45;&gt;SaveImages_f99bd8e8 -->
<g id="edge41" class="edge">
<title>image__UpsampledIllumA&#45;&gt;SaveImages_f99bd8e8</title>
<path fill="none" stroke="black" d="M874.62,-71.7C874.62,-64.41 874.62,-55.73 874.62,-47.54"/>
<polygon fill="black" stroke="black" points="878.13,-47.62 874.63,-37.62 871.13,-47.62 878.13,-47.62"/>
</g>
<!-- image__UpsampledIllumC&#45;&gt;SaveImages_22c568ca -->
<g id="edge42" class="edge">
<title>image__UpsampledIllumC&#45;&gt;SaveImages_22c568ca</title>
<path fill="none" stroke="black" d="M695.62,-71.7C695.62,-64.41 695.62,-55.73 695.62,-47.54"/>
<polygon fill="black" stroke="black" points="699.13,-47.62 695.63,-37.62 692.13,-47.62 699.13,-47.62"/>
</g>
<!-- image__UpsampledIllumDNA&#45;&gt;SaveImages_bf727218 -->
<g id="edge43" class="edge">
<title>image__UpsampledIllumDNA&#45;&gt;SaveImages_bf727218</title>
<path fill="none" stroke="black" d="M109.62,-71.7C109.62,-64.41 109.62,-55.73 109.62,-47.54"/>
<polygon fill="black" stroke="black" points="113.13,-47.62 109.63,-37.62 106.13,-47.62 113.13,-47.62"/>
</g>
<!-- image__UpsampledIllumG&#45;&gt;SaveImages_e2526f42 -->
<g id="edge44" class="edge">
<title>image__UpsampledIllumG&#45;&gt;SaveImages_e2526f42</title>
<path fill="none" stroke="black" d="M1069.62,-71.7C1069.62,-64.41 1069.62,-55.73 1069.62,-47.54"/>
<polygon fill="black" stroke="black" points="1073.13,-47.62 1069.63,-37.62 1066.13,-47.62 1073.13,-47.62"/>
</g>
<!-- image__UpsampledIllumT&#45;&gt;SaveImages_3a1994a7 -->
<g id="edge45" class="edge">
<title>image__UpsampledIllumT&#45;&gt;SaveImages_3a1994a7</title>
<path fill="none" stroke="black" d="M312.62,-71.7C312.62,-64.41 312.62,-55.73 312.62,-47.54"/>
<polygon fill="black" stroke="black" points="316.13,-47.62 312.63,-37.62 309.13,-47.62 316.13,-47.62"/>
</g>
</g>
</svg>
