<?xml version="1.0" encoding="UTF-8" standalone="no"?>
<!DOCTYPE svg PUBLIC "-//W3C//DTD SVG 1.1//EN"
 "http://www.w3.org/Graphics/SVG/1.1/DTD/svg11.dtd">
<!-- Generated by graphviz version 12.2.1 (20241206.2353)
 -->
<!-- Pages: 1 -->
<svg width="1096pt" height="980pt"
 viewBox="0.00 0.00 1096.23 980.00" xmlns="http://www.w3.org/2000/svg" xmlns:xlink="http://www.w3.org/1999/xlink">
<g id="graph0" class="graph" transform="scale(1 1) rotate(0) translate(4 976)">
<polygon fill="white" stroke="none" points="-4,4 -4,-976 1092.23,-976 1092.23,4 -4,4"/>
<!-- GrayToColor_d1a21ac6 -->
<g id="node1" class="node">
<title>GrayToColor_d1a21ac6</title>
<polygon fill="lightblue" stroke="black" points="786.93,-756 661.43,-756 661.43,-720 786.93,-720 786.93,-756"/>
<text text-anchor="middle" x="724.18" y="-732.2" font-family="Helvetica,sans-Serif" font-weight="bold" font-size="14.00">GrayToColor #12</text>
</g>
<!-- image__ColorImage -->
<g id="node15" class="node">
<title>image__ColorImage</title>
<ellipse fill="lightgray" stroke="black" cx="660.18" cy="-666" rx="55.45" ry="18"/>
<text text-anchor="middle" x="660.18" y="-660.95" font-family="Times,serif" font-size="14.00">ColorImage</text>
</g>
<!-- GrayToColor_d1a21ac6&#45;&gt;image__ColorImage -->
<g id="edge1" class="edge">
<title>GrayToColor_d1a21ac6&#45;&gt;image__ColorImage</title>
<path fill="none" stroke="black" d="M708.36,-719.7C700.73,-711.35 691.44,-701.18 683.05,-692.02"/>
<polygon fill="black" stroke="black" points="685.73,-689.76 676.4,-684.74 680.57,-694.48 685.73,-689.76"/>
</g>
<!-- IdentifyPrimaryObjects_2a46ae0b -->
<g id="node2" class="node">
<title>IdentifyPrimaryObjects_2a46ae0b</title>
<polygon fill="lightblue" stroke="black" points="362.18,-900 178.18,-900 178.18,-864 362.18,-864 362.18,-900"/>
<text text-anchor="middle" x="270.18" y="-876.2" font-family="Helvetica,sans-Serif" font-weight="bold" font-size="14.00">IdentifyPrimaryObjects #2</text>
</g>
<!-- object__ConfluentRegions -->
<g id="node27" class="node">
<title>object__ConfluentRegions</title>
<ellipse fill="lightgreen" stroke="black" cx="284.18" cy="-810" rx="77.97" ry="18"/>
<text text-anchor="middle" x="284.18" y="-804.95" font-family="Times,serif" font-size="14.00">ConfluentRegions</text>
</g>
<!-- IdentifyPrimaryObjects_2a46ae0b&#45;&gt;object__ConfluentRegions -->
<g id="edge2" class="edge">
<title>IdentifyPrimaryObjects_2a46ae0b&#45;&gt;object__ConfluentRegions</title>
<path fill="none" stroke="black" d="M273.64,-863.7C275.12,-856.32 276.88,-847.52 278.53,-839.25"/>
<polygon fill="black" stroke="black" points="281.93,-840.08 280.46,-829.59 275.07,-838.71 281.93,-840.08"/>
</g>
<!-- IdentifyPrimaryObjects_4c20beda -->
<g id="node3" class="node">
<title>IdentifyPrimaryObjects_4c20beda</title>
<polygon fill="lightblue" stroke="black" points="213.18,-612 29.18,-612 29.18,-576 213.18,-576 213.18,-612"/>
<text text-anchor="middle" x="121.18" y="-588.2" font-family="Helvetica,sans-Serif" font-weight="bold" font-size="14.00">IdentifyPrimaryObjects #6</text>
</g>
<!-- object__Nuclei -->
<g id="node29" class="node">
<title>object__Nuclei</title>
<ellipse fill="lightgreen" stroke="black" cx="111.18" cy="-522" rx="35.49" ry="18"/>
<text text-anchor="middle" x="111.18" y="-516.95" font-family="Times,serif" font-size="14.00">Nuclei</text>
</g>
<!-- IdentifyPrimaryObjects_4c20beda&#45;&gt;object__Nuclei -->
<g id="edge3" class="edge">
<title>IdentifyPrimaryObjects_4c20beda&#45;&gt;object__Nuclei</title>
<path fill="none" stroke="black" d="M118.71,-575.7C117.66,-568.32 116.4,-559.52 115.22,-551.25"/>
<polygon fill="black" stroke="black" points="118.72,-551.01 113.84,-541.6 111.79,-552 118.72,-551.01"/>
</g>
<!-- IdentifySecondaryObjects_7ee30c54 -->
<g id="node4" class="node">
<title>IdentifySecondaryObjects_7ee30c54</title>
<polygon fill="lightblue" stroke="black" points="279.18,-324 77.18,-324 77.18,-288 279.18,-288 279.18,-324"/>
<text text-anchor="middle" x="178.18" y="-300.2" font-family="Helvetica,sans-Serif" font-weight="bold" font-size="14.00">IdentifySecondaryObjects #8</text>
</g>
<!-- object__Cells -->
<g id="node26" class="node">
<title>object__Cells</title>
<ellipse fill="lightgreen" stroke="black" cx="238.18" cy="-234" rx="29.86" ry="18"/>
<text text-anchor="middle" x="238.18" y="-228.95" font-family="Times,serif" font-size="14.00">Cells</text>
</g>
<!-- IdentifySecondaryObjects_7ee30c54&#45;&gt;object__Cells -->
<g id="edge4" class="edge">
<title>IdentifySecondaryObjects_7ee30c54&#45;&gt;object__Cells</title>
<path fill="none" stroke="black" d="M193.01,-287.7C200.48,-278.98 209.65,-268.28 217.77,-258.81"/>
<polygon fill="black" stroke="black" points="220.32,-261.22 224.17,-251.35 215,-256.67 220.32,-261.22"/>
</g>
<!-- object__FilteredNuclei -->
<g id="node28" class="node">
<title>object__FilteredNuclei</title>
<ellipse fill="lightgreen" stroke="black" cx="115.18" cy="-234" rx="64.15" ry="18"/>
<text text-anchor="middle" x="115.18" y="-228.95" font-family="Times,serif" font-size="14.00">FilteredNuclei</text>
</g>
<!-- IdentifySecondaryObjects_7ee30c54&#45;&gt;object__FilteredNuclei -->
<g id="edge5" class="edge">
<title>IdentifySecondaryObjects_7ee30c54&#45;&gt;object__FilteredNuclei</title>
<path fill="none" stroke="black" d="M162.61,-287.7C155.1,-279.35 145.95,-269.18 137.7,-260.02"/>
<polygon fill="black" stroke="black" points="140.45,-257.84 131.15,-252.75 135.24,-262.52 140.45,-257.84"/>
</g>
<!-- IdentifySecondaryObjects_e49539f5 -->
<g id="node5" class="node">
<title>IdentifySecondaryObjects_e49539f5</title>
<polygon fill="lightblue" stroke="black" points="231.18,-468 29.18,-468 29.18,-432 231.18,-432 231.18,-468"/>
<text text-anchor="middle" x="130.18" y="-444.2" font-family="Helvetica,sans-Serif" font-weight="bold" font-size="14.00">IdentifySecondaryObjects #7</text>
</g>
<!-- IdentifySecondaryObjects_e49539f5&#45;&gt;object__FilteredNuclei -->
<g id="edge6" class="edge">
<title>IdentifySecondaryObjects_e49539f5&#45;&gt;object__FilteredNuclei</title>
<path fill="none" stroke="black" d="M118.34,-431.78C103.17,-408.56 77.69,-365.31 68.18,-324 64.59,-308.41 62.5,-302.96 68.18,-288 72.2,-277.42 79.4,-267.6 86.98,-259.35"/>
<polygon fill="black" stroke="black" points="89.27,-262.01 93.83,-252.44 84.3,-257.08 89.27,-262.01"/>
</g>
<!-- object__PreCells -->
<g id="node30" class="node">
<title>object__PreCells</title>
<ellipse fill="lightgreen" stroke="black" cx="154.18" cy="-378" rx="42.14" ry="18"/>
<text text-anchor="middle" x="154.18" y="-372.95" font-family="Times,serif" font-size="14.00">PreCells</text>
</g>
<!-- IdentifySecondaryObjects_e49539f5&#45;&gt;object__PreCells -->
<g id="edge7" class="edge">
<title>IdentifySecondaryObjects_e49539f5&#45;&gt;object__PreCells</title>
<path fill="none" stroke="black" d="M136.11,-431.7C138.67,-424.24 141.73,-415.32 144.59,-406.97"/>
<polygon fill="black" stroke="black" points="147.89,-408.13 147.83,-397.54 141.27,-405.86 147.89,-408.13"/>
</g>
<!-- MaskImage_15781b3c -->
<g id="node6" class="node">
<title>MaskImage_15781b3c</title>
<polygon fill="lightblue" stroke="black" points="619.68,-756 510.68,-756 510.68,-720 619.68,-720 619.68,-756"/>
<text text-anchor="middle" x="565.18" y="-732.2" font-family="Helvetica,sans-Serif" font-weight="bold" font-size="14.00">MaskImage #4</text>
</g>
<!-- MaskImage_3d148662 -->
<g id="node7" class="node">
<title>MaskImage_3d148662</title>
<polygon fill="lightblue" stroke="black" points="204.68,-756 95.68,-756 95.68,-720 204.68,-720 204.68,-756"/>
<text text-anchor="middle" x="150.18" y="-732.2" font-family="Helvetica,sans-Serif" font-weight="bold" font-size="14.00">MaskImage #3</text>
</g>
<!-- image__MaskedDAPI -->
<g id="node17" class="node">
<title>image__MaskedDAPI</title>
<ellipse fill="lightgray" stroke="black" cx="131.18" cy="-666" rx="62.1" ry="18"/>
<text text-anchor="middle" x="131.18" y="-660.95" font-family="Times,serif" font-size="14.00">MaskedDAPI</text>
</g>
<!-- MaskImage_3d148662&#45;&gt;image__MaskedDAPI -->
<g id="edge8" class="edge">
<title>MaskImage_3d148662&#45;&gt;image__MaskedDAPI</title>
<path fill="none" stroke="black" d="M145.48,-719.7C143.46,-712.24 141.04,-703.32 138.77,-694.97"/>
<polygon fill="black" stroke="black" points="142.22,-694.3 136.22,-685.57 135.46,-696.13 142.22,-694.3"/>
</g>
<!-- MaskImage_6a245811 -->
<g id="node8" class="node">
<title>MaskImage_6a245811</title>
<polygon fill="lightblue" stroke="black" points="444.68,-756 335.68,-756 335.68,-720 444.68,-720 444.68,-756"/>
<text text-anchor="middle" x="390.18" y="-732.2" font-family="Helvetica,sans-Serif" font-weight="bold" font-size="14.00">MaskImage #5</text>
</g>
<!-- image__MaskedZO1 -->
<g id="node18" class="node">
<title>image__MaskedZO1</title>
<ellipse fill="lightgray" stroke="black" cx="222.18" cy="-522" rx="57.49" ry="18"/>
<text text-anchor="middle" x="222.18" y="-516.95" font-family="Times,serif" font-size="14.00">MaskedZO1</text>
</g>
<!-- MaskImage_6a245811&#45;&gt;image__MaskedZO1 -->
<g id="edge9" class="edge">
<title>MaskImage_6a245811&#45;&gt;image__MaskedZO1</title>
<path fill="none" stroke="black" d="M376.72,-719.85C347.34,-682.43 277.33,-593.25 242.54,-548.93"/>
<polygon fill="black" stroke="black" points="245.34,-546.83 236.41,-541.13 239.83,-551.15 245.34,-546.83"/>
</g>
<!-- OverlayOutlines_e700eb17 -->
<g id="node9" class="node">
<title>OverlayOutlines_e700eb17</title>
<polygon fill="lightblue" stroke="black" points="357.81,-180 210.56,-180 210.56,-144 357.81,-144 357.81,-180"/>
<text text-anchor="middle" x="284.18" y="-156.2" font-family="Helvetica,sans-Serif" font-weight="bold" font-size="14.00">OverlayOutlines #14</text>
</g>
<!-- image__OrigOverlay -->
<g id="node19" class="node">
<title>image__OrigOverlay</title>
<ellipse fill="lightgray" stroke="black" cx="284.18" cy="-90" rx="57.49" ry="18"/>
<text text-anchor="middle" x="284.18" y="-84.95" font-family="Times,serif" font-size="14.00">OrigOverlay</text>
</g>
<!-- OverlayOutlines_e700eb17&#45;&gt;image__OrigOverlay -->
<g id="edge10" class="edge">
<title>OverlayOutlines_e700eb17&#45;&gt;image__OrigOverlay</title>
<path fill="none" stroke="black" d="M284.18,-143.7C284.18,-136.41 284.18,-127.73 284.18,-119.54"/>
<polygon fill="black" stroke="black" points="287.68,-119.62 284.18,-109.62 280.68,-119.62 287.68,-119.62"/>
</g>
<!-- RescaleIntensity_3e52e236 -->
<g id="node10" class="node">
<title>RescaleIntensity_3e52e236</title>
<polygon fill="lightblue" stroke="black" points="786.56,-900 637.81,-900 637.81,-864 786.56,-864 786.56,-900"/>
<text text-anchor="middle" x="712.18" y="-876.2" font-family="Helvetica,sans-Serif" font-weight="bold" font-size="14.00">RescaleIntensity #11</text>
</g>
<!-- image__RescaleZO1forvis -->
<g id="node24" class="node">
<title>image__RescaleZO1forvis</title>
<ellipse fill="lightgray" stroke="black" cx="748.18" cy="-810" rx="77.97" ry="18"/>
<text text-anchor="middle" x="748.18" y="-804.95" font-family="Times,serif" font-size="14.00">RescaleZO1forvis</text>
</g>
<!-- RescaleIntensity_3e52e236&#45;&gt;image__RescaleZO1forvis -->
<g id="edge11" class="edge">
<title>RescaleIntensity_3e52e236&#45;&gt;image__RescaleZO1forvis</title>
<path fill="none" stroke="black" d="M721.08,-863.7C725.05,-855.98 729.82,-846.71 734.24,-838.11"/>
<polygon fill="black" stroke="black" points="737.23,-839.94 738.69,-829.45 731.01,-836.74 737.23,-839.94"/>
</g>
<!-- RescaleIntensity_4210b283 -->
<g id="node11" class="node">
<title>RescaleIntensity_4210b283</title>
<polygon fill="lightblue" stroke="black" points="582.81,-900 441.56,-900 441.56,-864 582.81,-864 582.81,-900"/>
<text text-anchor="middle" x="512.18" y="-876.2" font-family="Helvetica,sans-Serif" font-weight="bold" font-size="14.00">RescaleIntensity #9</text>
</g>
<!-- image__RescaleDAPIPaintingForVis -->
<g id="node21" class="node">
<title>image__RescaleDAPIPaintingForVis</title>
<ellipse fill="lightgray" stroke="black" cx="535.18" cy="-810" rx="117.37" ry="18"/>
<text text-anchor="middle" x="535.18" y="-804.95" font-family="Times,serif" font-size="14.00">RescaleDAPIPaintingForVis</text>
</g>
<!-- RescaleIntensity_4210b283&#45;&gt;image__RescaleDAPIPaintingForVis -->
<g id="edge12" class="edge">
<title>RescaleIntensity_4210b283&#45;&gt;image__RescaleDAPIPaintingForVis</title>
<path fill="none" stroke="black" d="M517.87,-863.7C520.32,-856.24 523.25,-847.32 525.99,-838.97"/>
<polygon fill="black" stroke="black" points="529.29,-840.14 529.09,-829.54 522.64,-837.95 529.29,-840.14"/>
</g>
<!-- RescaleIntensity_5d3ba968 -->
<g id="node12" class="node">
<title>RescaleIntensity_5d3ba968</title>
<polygon fill="lightblue" stroke="black" points="670.56,-612 521.81,-612 521.81,-576 670.56,-576 670.56,-612"/>
<text text-anchor="middle" x="596.18" y="-588.2" font-family="Helvetica,sans-Serif" font-weight="bold" font-size="14.00">RescaleIntensity #13</text>
</g>
<!-- image__RescaleIntensity -->
<g id="node22" class="node">
<title>image__RescaleIntensity</title>
<ellipse fill="lightgray" stroke="black" cx="501.18" cy="-450" rx="71.82" ry="18"/>
<text text-anchor="middle" x="501.18" y="-444.95" font-family="Times,serif" font-size="14.00">RescaleIntensity</text>
</g>
<!-- RescaleIntensity_5d3ba968&#45;&gt;image__RescaleIntensity -->
<g id="edge13" class="edge">
<title>RescaleIntensity_5d3ba968&#45;&gt;image__RescaleIntensity</title>
<path fill="none" stroke="black" d="M584.53,-575.59C568.13,-551.08 538.11,-506.19 518.92,-477.52"/>
<polygon fill="black" stroke="black" points="521.94,-475.73 513.47,-469.37 516.12,-479.63 521.94,-475.73"/>
</g>
<!-- RescaleIntensity_5da0ec4a -->
<g id="node13" class="node">
<title>RescaleIntensity_5da0ec4a</title>
<polygon fill="lightblue" stroke="black" points="1044.56,-900 895.81,-900 895.81,-864 1044.56,-864 1044.56,-900"/>
<text text-anchor="middle" x="970.18" y="-876.2" font-family="Helvetica,sans-Serif" font-weight="bold" font-size="14.00">RescaleIntensity #10</text>
</g>
<!-- image__RescalePhalloidinForVis -->
<g id="node23" class="node">
<title>image__RescalePhalloidinForVis</title>
<ellipse fill="lightgray" stroke="black" cx="985.18" cy="-810" rx="103.04" ry="18"/>
<text text-anchor="middle" x="985.18" y="-804.95" font-family="Times,serif" font-size="14.00">RescalePhalloidinForVis</text>
</g>
<!-- RescaleIntensity_5da0ec4a&#45;&gt;image__RescalePhalloidinForVis -->
<g id="edge14" class="edge">
<title>RescaleIntensity_5da0ec4a&#45;&gt;image__RescalePhalloidinForVis</title>
<path fill="none" stroke="black" d="M973.89,-863.7C975.47,-856.32 977.35,-847.52 979.13,-839.25"/>
<polygon fill="black" stroke="black" points="982.53,-840.1 981.2,-829.58 975.68,-838.63 982.53,-840.1"/>
</g>
<!-- SaveImages_491701a3 -->
<g id="node14" class="node">
<title>SaveImages_491701a3</title>
<polygon fill="lightblue" stroke="black" points="344.68,-36 223.68,-36 223.68,0 344.68,0 344.68,-36"/>
<text text-anchor="middle" x="284.18" y="-12.2" font-family="Helvetica,sans-Serif" font-weight="bold" font-size="14.00">SaveImages #15</text>
</g>
<!-- image__ColorImage&#45;&gt;RescaleIntensity_5d3ba968 -->
<g id="edge15" class="edge">
<title>image__ColorImage&#45;&gt;RescaleIntensity_5d3ba968</title>
<path fill="none" stroke="black" d="M645.01,-648.41C637.51,-640.2 628.27,-630.1 619.86,-620.9"/>
<polygon fill="black" stroke="black" points="622.49,-618.58 613.15,-613.56 617.32,-623.31 622.49,-618.58"/>
</g>
<!-- image__DNA -->
<g id="node16" class="node">
<title>image__DNA</title>
<ellipse fill="lightgray" stroke="black" cx="270.18" cy="-954" rx="30.88" ry="18"/>
<text text-anchor="middle" x="270.18" y="-948.95" font-family="Times,serif" font-size="14.00">DNA</text>
</g>
<!-- image__DNA&#45;&gt;IdentifyPrimaryObjects_2a46ae0b -->
<g id="edge16" class="edge">
<title>image__DNA&#45;&gt;IdentifyPrimaryObjects_2a46ae0b</title>
<path fill="none" stroke="black" d="M270.18,-935.7C270.18,-928.41 270.18,-919.73 270.18,-911.54"/>
<polygon fill="black" stroke="black" points="273.68,-911.62 270.18,-901.62 266.68,-911.62 273.68,-911.62"/>
</g>
<!-- image__DNA&#45;&gt;MaskImage_3d148662 -->
<g id="edge17" class="edge">
<title>image__DNA&#45;&gt;MaskImage_3d148662</title>
<path fill="none" stroke="black" d="M242.16,-946.14C218.65,-938.83 186.24,-924.8 169.18,-900 141.93,-860.38 142.59,-801.93 146.05,-767.43"/>
<polygon fill="black" stroke="black" points="149.49,-768.14 147.17,-757.8 142.53,-767.33 149.49,-768.14"/>
</g>
<!-- image__DNA&#45;&gt;RescaleIntensity_4210b283 -->
<g id="edge18" class="edge">
<title>image__DNA&#45;&gt;RescaleIntensity_4210b283</title>
<path fill="none" stroke="black" d="M297.47,-945.11C331.99,-935.12 392.72,-917.55 440.81,-903.64"/>
<polygon fill="black" stroke="black" points="441.71,-907.03 450.34,-900.89 439.77,-900.3 441.71,-907.03"/>
</g>
<!-- image__MaskedDAPI&#45;&gt;IdentifyPrimaryObjects_4c20beda -->
<g id="edge19" class="edge">
<title>image__MaskedDAPI&#45;&gt;IdentifyPrimaryObjects_4c20beda</title>
<path fill="none" stroke="black" d="M128.71,-647.7C127.66,-640.32 126.4,-631.52 125.22,-623.25"/>
<polygon fill="black" stroke="black" points="128.72,-623.01 123.84,-613.6 121.79,-624 128.72,-623.01"/>
</g>
<!-- image__MaskedZO1&#45;&gt;IdentifySecondaryObjects_7ee30c54 -->
<g id="edge20" class="edge">
<title>image__MaskedZO1&#45;&gt;IdentifySecondaryObjects_7ee30c54</title>
<path fill="none" stroke="black" d="M230,-503.88C237.18,-485.92 245.91,-456.89 240.18,-432 231.86,-395.85 211.31,-358.23 196.14,-333.82"/>
<polygon fill="black" stroke="black" points="199.16,-332.04 190.83,-325.49 193.25,-335.81 199.16,-332.04"/>
</g>
<!-- image__MaskedZO1&#45;&gt;IdentifySecondaryObjects_e49539f5 -->
<g id="edge21" class="edge">
<title>image__MaskedZO1&#45;&gt;IdentifySecondaryObjects_e49539f5</title>
<path fill="none" stroke="black" d="M201.31,-505.12C189.7,-496.29 175.02,-485.12 162.02,-475.22"/>
<polygon fill="black" stroke="black" points="164.19,-472.48 154.11,-469.21 159.95,-478.05 164.19,-472.48"/>
</g>
<!-- image__OrigOverlay&#45;&gt;SaveImages_491701a3 -->
<g id="edge22" class="edge">
<title>image__OrigOverlay&#45;&gt;SaveImages_491701a3</title>
<path fill="none" stroke="black" d="M284.18,-71.7C284.18,-64.41 284.18,-55.73 284.18,-47.54"/>
<polygon fill="black" stroke="black" points="287.68,-47.62 284.18,-37.62 280.68,-47.62 287.68,-47.62"/>
</g>
<!-- image__Phalloidin -->
<g id="node20" class="node">
<title>image__Phalloidin</title>
<ellipse fill="lightgray" stroke="black" cx="912.18" cy="-954" rx="48.79" ry="18"/>
<text text-anchor="middle" x="912.18" y="-948.95" font-family="Times,serif" font-size="14.00">Phalloidin</text>
</g>
<!-- image__Phalloidin&#45;&gt;MaskImage_15781b3c -->
<g id="edge23" class="edge">
<title>image__Phalloidin&#45;&gt;MaskImage_15781b3c</title>
<path fill="none" stroke="black" d="M904.13,-935.92C884.71,-894.73 836.74,-793.21 835.18,-792 834.93,-791.8 710.88,-767.5 631.03,-751.88"/>
<polygon fill="black" stroke="black" points="632.05,-748.51 621.56,-750.03 630.71,-755.38 632.05,-748.51"/>
</g>
<!-- image__Phalloidin&#45;&gt;RescaleIntensity_5da0ec4a -->
<g id="edge24" class="edge">
<title>image__Phalloidin&#45;&gt;RescaleIntensity_5da0ec4a</title>
<path fill="none" stroke="black" d="M925.93,-936.41C932.66,-928.28 940.93,-918.31 948.49,-909.18"/>
<polygon fill="black" stroke="black" points="951.07,-911.55 954.76,-901.61 945.68,-907.08 951.07,-911.55"/>
</g>
<!-- image__RescaleDAPIPaintingForVis&#45;&gt;GrayToColor_d1a21ac6 -->
<g id="edge25" class="edge">
<title>image__RescaleDAPIPaintingForVis&#45;&gt;GrayToColor_d1a21ac6</title>
<path fill="none" stroke="black" d="M578.54,-792.94C604.63,-783.28 638.17,-770.86 666.48,-760.37"/>
<polygon fill="black" stroke="black" points="667.47,-763.74 675.63,-756.98 665.04,-757.17 667.47,-763.74"/>
</g>
<!-- image__RescaleIntensity&#45;&gt;OverlayOutlines_e700eb17 -->
<g id="edge26" class="edge">
<title>image__RescaleIntensity&#45;&gt;OverlayOutlines_e700eb17</title>
<path fill="none" stroke="black" d="M488.26,-431.97C451.78,-383.89 347.86,-246.93 304.05,-189.19"/>
<polygon fill="black" stroke="black" points="307.06,-187.36 298.23,-181.51 301.48,-191.59 307.06,-187.36"/>
</g>
<!-- image__RescalePhalloidinForVis&#45;&gt;GrayToColor_d1a21ac6 -->
<g id="edge27" class="edge">
<title>image__RescalePhalloidinForVis&#45;&gt;GrayToColor_d1a21ac6</title>
<path fill="none" stroke="black" d="M930.47,-794.33C892.05,-784.02 840.21,-770.12 798.12,-758.83"/>
<polygon fill="black" stroke="black" points="799.11,-755.47 788.54,-756.26 797.3,-762.23 799.11,-755.47"/>
</g>
<!-- image__RescaleZO1forvis&#45;&gt;GrayToColor_d1a21ac6 -->
<g id="edge28" class="edge">
<title>image__RescaleZO1forvis&#45;&gt;GrayToColor_d1a21ac6</title>
<path fill="none" stroke="black" d="M742.25,-791.7C739.69,-784.24 736.63,-775.32 733.77,-766.97"/>
<polygon fill="black" stroke="black" points="737.09,-765.86 730.54,-757.54 730.47,-768.13 737.09,-765.86"/>
</g>
<!-- image__ZO1 -->
<g id="node25" class="node">
<title>image__ZO1</title>
<ellipse fill="lightgray" stroke="black" cx="551.18" cy="-954" rx="27.81" ry="18"/>
<text text-anchor="middle" x="551.18" y="-948.95" font-family="Times,serif" font-size="14.00">ZO1</text>
</g>
<!-- image__ZO1&#45;&gt;MaskImage_6a245811 -->
<g id="edge29" class="edge">
<title>image__ZO1&#45;&gt;MaskImage_6a245811</title>
<path fill="none" stroke="black" d="M524.72,-947.85C497.79,-941.26 456.63,-927.29 432.18,-900 399.08,-863.05 391.49,-803.21 390.08,-767.83"/>
<polygon fill="black" stroke="black" points="393.58,-767.84 389.84,-757.92 386.58,-768 393.58,-767.84"/>
</g>
<!-- image__ZO1&#45;&gt;RescaleIntensity_3e52e236 -->
<g id="edge30" class="edge">
<title>image__ZO1&#45;&gt;RescaleIntensity_3e52e236</title>
<path fill="none" stroke="black" d="M573.91,-943.12C596.6,-933.25 632.25,-917.75 661.67,-904.96"/>
<polygon fill="black" stroke="black" points="663.02,-908.19 670.8,-900.99 660.23,-901.77 663.02,-908.19"/>
</g>
<!-- object__Cells&#45;&gt;OverlayOutlines_e700eb17 -->
<g id="edge31" class="edge">
<title>object__Cells&#45;&gt;OverlayOutlines_e700eb17</title>
<path fill="none" stroke="black" d="M248.85,-216.76C254.15,-208.7 260.69,-198.74 266.7,-189.6"/>
<polygon fill="black" stroke="black" points="269.53,-191.67 272.1,-181.39 263.68,-187.82 269.53,-191.67"/>
</g>
<!-- object__ConfluentRegions&#45;&gt;MaskImage_15781b3c -->
<g id="edge32" class="edge">
<title>object__ConfluentRegions&#45;&gt;MaskImage_15781b3c</title>
<path fill="none" stroke="black" d="M335.72,-796.16C381.83,-784.68 449.64,-767.78 499.6,-755.34"/>
<polygon fill="black" stroke="black" points="500.29,-758.77 509.14,-752.96 498.59,-751.98 500.29,-758.77"/>
</g>
<!-- object__ConfluentRegions&#45;&gt;MaskImage_3d148662 -->
<g id="edge33" class="edge">
<title>object__ConfluentRegions&#45;&gt;MaskImage_3d148662</title>
<path fill="none" stroke="black" d="M253.77,-793.12C235.89,-783.77 212.99,-771.81 193.26,-761.51"/>
<polygon fill="black" stroke="black" points="195.11,-758.52 184.63,-756.99 191.87,-764.73 195.11,-758.52"/>
</g>
<!-- object__ConfluentRegions&#45;&gt;MaskImage_6a245811 -->
<g id="edge34" class="edge">
<title>object__ConfluentRegions&#45;&gt;MaskImage_6a245811</title>
<path fill="none" stroke="black" d="M309.03,-792.59C322.59,-783.64 339.6,-772.4 354.54,-762.54"/>
<polygon fill="black" stroke="black" points="356.33,-765.55 362.74,-757.12 352.47,-759.71 356.33,-765.55"/>
</g>
<!-- object__ConfluentRegions&#45;&gt;OverlayOutlines_e700eb17 -->
<g id="edge35" class="edge">
<title>object__ConfluentRegions&#45;&gt;OverlayOutlines_e700eb17</title>
<path fill="none" stroke="black" d="M288.84,-791.66C295.56,-765.05 307.18,-712.45 307.18,-667 307.18,-667 307.18,-667 307.18,-305 307.18,-265.23 298.28,-219.99 291.55,-191.47"/>
<polygon fill="black" stroke="black" points="294.97,-190.7 289.2,-181.81 288.17,-192.36 294.97,-190.7"/>
</g>
<!-- object__Nuclei&#45;&gt;IdentifySecondaryObjects_e49539f5 -->
<g id="edge36" class="edge">
<title>object__Nuclei&#45;&gt;IdentifySecondaryObjects_e49539f5</title>
<path fill="none" stroke="black" d="M115.88,-503.7C117.9,-496.24 120.32,-487.32 122.59,-478.97"/>
<polygon fill="black" stroke="black" points="125.9,-480.13 125.14,-469.57 119.15,-478.3 125.9,-480.13"/>
</g>
<!-- object__Nuclei&#45;&gt;OverlayOutlines_e700eb17 -->
<g id="edge37" class="edge">
<title>object__Nuclei&#45;&gt;OverlayOutlines_e700eb17</title>
<path fill="none" stroke="black" d="M82.18,-511.34C61.74,-503.03 35.41,-489.03 20.18,-468 -3.54,-435.24 1.18,-419.45 1.18,-379 1.18,-379 1.18,-379 1.18,-305 1.18,-261.45 8.25,-243.29 42.18,-216 66.23,-196.66 139.36,-182.35 198.99,-173.5"/>
<polygon fill="black" stroke="black" points="199.44,-176.98 208.83,-172.08 198.43,-170.05 199.44,-176.98"/>
</g>
<!-- object__PreCells&#45;&gt;IdentifySecondaryObjects_7ee30c54 -->
<g id="edge38" class="edge">
<title>object__PreCells&#45;&gt;IdentifySecondaryObjects_7ee30c54</title>
<path fill="none" stroke="black" d="M160.11,-359.7C162.67,-352.24 165.73,-343.32 168.59,-334.97"/>
<polygon fill="black" stroke="black" points="171.89,-336.13 171.83,-325.54 165.27,-333.86 171.89,-336.13"/>
</g>
</g>
</svg>
