<?xml version="1.0" encoding="UTF-8" standalone="no"?>
<!DOCTYPE svg PUBLIC "-//W3C//DTD SVG 1.1//EN"
 "http://www.w3.org/Graphics/SVG/1.1/DTD/svg11.dtd">
<!-- Generated by graphviz version 12.2.1 (20241206.2353)
 -->
<!-- Pages: 1 -->
<svg width="845pt" height="764pt"
 viewBox="0.00 0.00 845.45 764.00" xmlns="http://www.w3.org/2000/svg" xmlns:xlink="http://www.w3.org/1999/xlink">
<g id="graph0" class="graph" transform="scale(1 1) rotate(0) translate(4 760)">
<polygon fill="white" stroke="none" points="-4,4 -4,-760 841.45,-760 841.45,4 -4,4"/>
<!-- CorrectIlluminationApply_4841df99 -->
<g id="node1" class="node">
<title>CorrectIlluminationApply_4841df99</title>
<polygon fill="lightblue" stroke="black" points="575.12,-684 378.38,-684 378.38,-648 575.12,-648 575.12,-684"/>
<text text-anchor="middle" x="476.75" y="-660.2" font-family="Helvetica,sans-Serif" font-weight="bold" font-size="14.00">CorrectIlluminationApply #2</text>
</g>
<!-- image__CorrDNA -->
<g id="node10" class="node">
<title>image__CorrDNA</title>
<ellipse fill="lightgray" stroke="black" cx="246.75" cy="-594" rx="47.77" ry="18"/>
<text text-anchor="middle" x="246.75" y="-588.95" font-family="Times,serif" font-size="14.00">CorrDNA</text>
</g>
<!-- CorrectIlluminationApply_4841df99&#45;&gt;image__CorrDNA -->
<g id="edge1" class="edge">
<title>CorrectIlluminationApply_4841df99&#45;&gt;image__CorrDNA</title>
<path fill="none" stroke="black" d="M419.3,-647.52C380.6,-635.74 330.17,-620.39 293.84,-609.33"/>
<polygon fill="black" stroke="black" points="295.08,-606.05 284.49,-606.49 293.04,-612.75 295.08,-606.05"/>
</g>
<!-- image__CorrPhalloidin -->
<g id="node11" class="node">
<title>image__CorrPhalloidin</title>
<ellipse fill="lightgray" stroke="black" cx="476.75" cy="-450" rx="65.68" ry="18"/>
<text text-anchor="middle" x="476.75" y="-444.95" font-family="Times,serif" font-size="14.00">CorrPhalloidin</text>
</g>
<!-- CorrectIlluminationApply_4841df99&#45;&gt;image__CorrPhalloidin -->
<g id="edge2" class="edge">
<title>CorrectIlluminationApply_4841df99&#45;&gt;image__CorrPhalloidin</title>
<path fill="none" stroke="black" d="M476.75,-647.85C476.75,-611.14 476.75,-524.66 476.75,-479.53"/>
<polygon fill="black" stroke="black" points="480.25,-479.75 476.75,-469.75 473.25,-479.75 480.25,-479.75"/>
</g>
<!-- image__CorrZO1 -->
<g id="node12" class="node">
<title>image__CorrZO1</title>
<ellipse fill="lightgray" stroke="black" cx="582.75" cy="-522" rx="44.7" ry="18"/>
<text text-anchor="middle" x="582.75" y="-516.95" font-family="Times,serif" font-size="14.00">CorrZO1</text>
</g>
<!-- CorrectIlluminationApply_4841df99&#45;&gt;image__CorrZO1 -->
<g id="edge3" class="edge">
<title>CorrectIlluminationApply_4841df99&#45;&gt;image__CorrZO1</title>
<path fill="none" stroke="black" d="M489.75,-647.59C508.22,-622.84 542.21,-577.31 563.58,-548.68"/>
<polygon fill="black" stroke="black" points="566.22,-550.99 569.4,-540.88 560.61,-546.8 566.22,-550.99"/>
</g>
<!-- IdentifyPrimaryObjects_4c20beda -->
<g id="node2" class="node">
<title>IdentifyPrimaryObjects_4c20beda</title>
<polygon fill="lightblue" stroke="black" points="276.5,-252 85,-252 85,-216 276.5,-216 276.5,-252"/>
<text text-anchor="middle" x="180.75" y="-228.2" font-family="Helvetica,sans-Serif" font-weight="bold" font-size="14.00">IdentifyPrimaryObjects #11</text>
</g>
<!-- object__Nuclei -->
<g id="node24" class="node">
<title>object__Nuclei</title>
<ellipse fill="lightgreen" stroke="black" cx="204.75" cy="-162" rx="35.49" ry="18"/>
<text text-anchor="middle" x="204.75" y="-156.95" font-family="Times,serif" font-size="14.00">Nuclei</text>
</g>
<!-- IdentifyPrimaryObjects_4c20beda&#45;&gt;object__Nuclei -->
<g id="edge4" class="edge">
<title>IdentifyPrimaryObjects_4c20beda&#45;&gt;object__Nuclei</title>
<path fill="none" stroke="black" d="M186.68,-215.7C189.24,-208.24 192.3,-199.32 195.16,-190.97"/>
<polygon fill="black" stroke="black" points="198.46,-192.13 198.39,-181.54 191.84,-189.86 198.46,-192.13"/>
</g>
<!-- IdentifyPrimaryObjects_ce623d98 -->
<g id="node3" class="node">
<title>IdentifyPrimaryObjects_ce623d98</title>
<polygon fill="lightblue" stroke="black" points="398.75,-540 214.75,-540 214.75,-504 398.75,-504 398.75,-540"/>
<text text-anchor="middle" x="306.75" y="-516.2" font-family="Helvetica,sans-Serif" font-weight="bold" font-size="14.00">IdentifyPrimaryObjects #8</text>
</g>
<!-- object__ConfluentRegions -->
<g id="node22" class="node">
<title>object__ConfluentRegions</title>
<ellipse fill="lightgreen" stroke="black" cx="306.75" cy="-450" rx="77.97" ry="18"/>
<text text-anchor="middle" x="306.75" y="-444.95" font-family="Times,serif" font-size="14.00">ConfluentRegions</text>
</g>
<!-- IdentifyPrimaryObjects_ce623d98&#45;&gt;object__ConfluentRegions -->
<g id="edge5" class="edge">
<title>IdentifyPrimaryObjects_ce623d98&#45;&gt;object__ConfluentRegions</title>
<path fill="none" stroke="black" d="M306.75,-503.7C306.75,-496.41 306.75,-487.73 306.75,-479.54"/>
<polygon fill="black" stroke="black" points="310.25,-479.62 306.75,-469.62 303.25,-479.62 310.25,-479.62"/>
</g>
<!-- IdentifySecondaryObjects_242958a0 -->
<g id="node4" class="node">
<title>IdentifySecondaryObjects_242958a0</title>
<polygon fill="lightblue" stroke="black" points="373.5,-108 164,-108 164,-72 373.5,-72 373.5,-108"/>
<text text-anchor="middle" x="268.75" y="-84.2" font-family="Helvetica,sans-Serif" font-weight="bold" font-size="14.00">IdentifySecondaryObjects #12</text>
</g>
<!-- object__Cells -->
<g id="node21" class="node">
<title>object__Cells</title>
<ellipse fill="lightgreen" stroke="black" cx="340.75" cy="-18" rx="29.86" ry="18"/>
<text text-anchor="middle" x="340.75" y="-12.95" font-family="Times,serif" font-size="14.00">Cells</text>
</g>
<!-- IdentifySecondaryObjects_242958a0&#45;&gt;object__Cells -->
<g id="edge6" class="edge">
<title>IdentifySecondaryObjects_242958a0&#45;&gt;object__Cells</title>
<path fill="none" stroke="black" d="M286.55,-71.7C295.92,-62.59 307.52,-51.31 317.58,-41.52"/>
<polygon fill="black" stroke="black" points="319.78,-44.27 324.51,-34.79 314.9,-39.25 319.78,-44.27"/>
</g>
<!-- object__FilteredNuclei -->
<g id="node23" class="node">
<title>object__FilteredNuclei</title>
<ellipse fill="lightgreen" stroke="black" cx="228.75" cy="-18" rx="64.15" ry="18"/>
<text text-anchor="middle" x="228.75" y="-12.95" font-family="Times,serif" font-size="14.00">FilteredNuclei</text>
</g>
<!-- IdentifySecondaryObjects_242958a0&#45;&gt;object__FilteredNuclei -->
<g id="edge7" class="edge">
<title>IdentifySecondaryObjects_242958a0&#45;&gt;object__FilteredNuclei</title>
<path fill="none" stroke="black" d="M258.86,-71.7C254.41,-63.9 249.04,-54.51 244.08,-45.83"/>
<polygon fill="black" stroke="black" points="247.28,-44.36 239.27,-37.42 241.2,-47.84 247.28,-44.36"/>
</g>
<!-- MaskImage_76b70196 -->
<g id="node5" class="node">
<title>MaskImage_76b70196</title>
<polygon fill="lightblue" stroke="black" points="241.25,-396 132.25,-396 132.25,-360 241.25,-360 241.25,-396"/>
<text text-anchor="middle" x="186.75" y="-372.2" font-family="Helvetica,sans-Serif" font-weight="bold" font-size="14.00">MaskImage #9</text>
</g>
<!-- image__MaskedDAPI -->
<g id="node16" class="node">
<title>image__MaskedDAPI</title>
<ellipse fill="lightgray" stroke="black" cx="182.75" cy="-306" rx="62.1" ry="18"/>
<text text-anchor="middle" x="182.75" y="-300.95" font-family="Times,serif" font-size="14.00">MaskedDAPI</text>
</g>
<!-- MaskImage_76b70196&#45;&gt;image__MaskedDAPI -->
<g id="edge8" class="edge">
<title>MaskImage_76b70196&#45;&gt;image__MaskedDAPI</title>
<path fill="none" stroke="black" d="M185.76,-359.7C185.34,-352.41 184.85,-343.73 184.38,-335.54"/>
<polygon fill="black" stroke="black" points="187.88,-335.4 183.81,-325.62 180.89,-335.8 187.88,-335.4"/>
</g>
<!-- MaskImage_9954d6b5 -->
<g id="node6" class="node">
<title>MaskImage_9954d6b5</title>
<polygon fill="lightblue" stroke="black" points="431,-396 314.5,-396 314.5,-360 431,-360 431,-396"/>
<text text-anchor="middle" x="372.75" y="-372.2" font-family="Helvetica,sans-Serif" font-weight="bold" font-size="14.00">MaskImage #10</text>
</g>
<!-- image__MaskedPhalloidin -->
<g id="node17" class="node">
<title>image__MaskedPhalloidin</title>
<ellipse fill="lightgray" stroke="black" cx="372.75" cy="-234" rx="78.48" ry="18"/>
<text text-anchor="middle" x="372.75" y="-228.95" font-family="Times,serif" font-size="14.00">MaskedPhalloidin</text>
</g>
<!-- MaskImage_9954d6b5&#45;&gt;image__MaskedPhalloidin -->
<g id="edge9" class="edge">
<title>MaskImage_9954d6b5&#45;&gt;image__MaskedPhalloidin</title>
<path fill="none" stroke="black" d="M372.75,-359.59C372.75,-335.61 372.75,-292.14 372.75,-263.42"/>
<polygon fill="black" stroke="black" points="376.25,-263.62 372.75,-253.62 369.25,-263.62 376.25,-263.62"/>
</g>
<!-- SaveImages_1f63435b -->
<g id="node7" class="node">
<title>SaveImages_1f63435b</title>
<polygon fill="lightblue" stroke="black" points="113.5,-36 0,-36 0,0 113.5,0 113.5,-36"/>
<text text-anchor="middle" x="56.75" y="-12.2" font-family="Helvetica,sans-Serif" font-weight="bold" font-size="14.00">SaveImages #3</text>
</g>
<!-- SaveImages_2a9b1e28 -->
<g id="node8" class="node">
<title>SaveImages_2a9b1e28</title>
<polygon fill="lightblue" stroke="black" points="667.5,-36 554,-36 554,0 667.5,0 667.5,-36"/>
<text text-anchor="middle" x="610.75" y="-12.2" font-family="Helvetica,sans-Serif" font-weight="bold" font-size="14.00">SaveImages #4</text>
</g>
<!-- SaveImages_4195e184 -->
<g id="node9" class="node">
<title>SaveImages_4195e184</title>
<polygon fill="lightblue" stroke="black" points="535.5,-36 422,-36 422,0 535.5,0 535.5,-36"/>
<text text-anchor="middle" x="478.75" y="-12.2" font-family="Helvetica,sans-Serif" font-weight="bold" font-size="14.00">SaveImages #6</text>
</g>
<!-- image__CorrDNA&#45;&gt;IdentifyPrimaryObjects_ce623d98 -->
<g id="edge10" class="edge">
<title>image__CorrDNA&#45;&gt;IdentifyPrimaryObjects_ce623d98</title>
<path fill="none" stroke="black" d="M260.97,-576.41C267.93,-568.28 276.49,-558.31 284.31,-549.18"/>
<polygon fill="black" stroke="black" points="286.96,-551.47 290.81,-541.6 281.65,-546.91 286.96,-551.47"/>
</g>
<!-- image__CorrDNA&#45;&gt;MaskImage_76b70196 -->
<g id="edge11" class="edge">
<title>image__CorrDNA&#45;&gt;MaskImage_76b70196</title>
<path fill="none" stroke="black" d="M230.47,-576.84C221.63,-567.03 211.38,-553.78 205.75,-540 187.83,-496.14 185.26,-440.35 185.6,-407.28"/>
<polygon fill="black" stroke="black" points="189.09,-407.78 185.81,-397.71 182.09,-407.63 189.09,-407.78"/>
</g>
<!-- image__CorrDNA&#45;&gt;SaveImages_1f63435b -->
<g id="edge12" class="edge">
<title>image__CorrDNA&#45;&gt;SaveImages_1f63435b</title>
<path fill="none" stroke="black" d="M208.3,-583.05C152.78,-566.1 56.75,-525.95 56.75,-451 56.75,-451 56.75,-451 56.75,-161 56.75,-121.74 56.75,-76.38 56.75,-47.69"/>
<polygon fill="black" stroke="black" points="60.25,-48 56.75,-38 53.25,-48 60.25,-48"/>
</g>
<!-- image__CorrPhalloidin&#45;&gt;MaskImage_9954d6b5 -->
<g id="edge13" class="edge">
<title>image__CorrPhalloidin&#45;&gt;MaskImage_9954d6b5</title>
<path fill="none" stroke="black" d="M452.89,-432.94C439.61,-424 422.82,-412.7 408.05,-402.76"/>
<polygon fill="black" stroke="black" points="410.19,-399.98 399.94,-397.3 406.28,-405.79 410.19,-399.98"/>
</g>
<!-- image__CorrPhalloidin&#45;&gt;SaveImages_4195e184 -->
<g id="edge14" class="edge">
<title>image__CorrPhalloidin&#45;&gt;SaveImages_4195e184</title>
<path fill="none" stroke="black" d="M477.15,-431.51C477.74,-404.71 478.75,-351.87 478.75,-307 478.75,-307 478.75,-307 478.75,-161 478.75,-121.74 478.75,-76.38 478.75,-47.69"/>
<polygon fill="black" stroke="black" points="482.25,-48 478.75,-38 475.25,-48 482.25,-48"/>
</g>
<!-- image__CorrZO1&#45;&gt;SaveImages_2a9b1e28 -->
<g id="edge15" class="edge">
<title>image__CorrZO1&#45;&gt;SaveImages_2a9b1e28</title>
<path fill="none" stroke="black" d="M588.42,-503.73C596.6,-477.21 610.75,-424.73 610.75,-379 610.75,-379 610.75,-379 610.75,-161 610.75,-121.74 610.75,-76.38 610.75,-47.69"/>
<polygon fill="black" stroke="black" points="614.25,-48 610.75,-38 607.25,-48 614.25,-48"/>
</g>
<!-- image__IllumDNA -->
<g id="node13" class="node">
<title>image__IllumDNA</title>
<ellipse fill="lightgray" stroke="black" cx="144.75" cy="-738" rx="51.35" ry="18"/>
<text text-anchor="middle" x="144.75" y="-732.95" font-family="Times,serif" font-size="14.00">IllumDNA</text>
</g>
<!-- image__IllumDNA&#45;&gt;CorrectIlluminationApply_4841df99 -->
<g id="edge16" class="edge">
<title>image__IllumDNA&#45;&gt;CorrectIlluminationApply_4841df99</title>
<path fill="none" stroke="black" d="M183.35,-725.75C190.76,-723.73 198.48,-721.72 205.75,-720 258.55,-707.5 317.64,-695.69 367.13,-686.41"/>
<polygon fill="black" stroke="black" points="367.52,-689.9 376.7,-684.62 366.23,-683.02 367.52,-689.9"/>
</g>
<!-- image__IllumPhalloidin -->
<g id="node14" class="node">
<title>image__IllumPhalloidin</title>
<ellipse fill="lightgray" stroke="black" cx="283.75" cy="-738" rx="69.26" ry="18"/>
<text text-anchor="middle" x="283.75" y="-732.95" font-family="Times,serif" font-size="14.00">IllumPhalloidin</text>
</g>
<!-- image__IllumPhalloidin&#45;&gt;CorrectIlluminationApply_4841df99 -->
<g id="edge17" class="edge">
<title>image__IllumPhalloidin&#45;&gt;CorrectIlluminationApply_4841df99</title>
<path fill="none" stroke="black" d="M322.81,-722.83C350.1,-712.94 387.03,-699.54 417.88,-688.35"/>
<polygon fill="black" stroke="black" points="418.88,-691.71 427.09,-685.01 416.49,-685.13 418.88,-691.71"/>
</g>
<!-- image__IllumZO1 -->
<g id="node15" class="node">
<title>image__IllumZO1</title>
<ellipse fill="lightgray" stroke="black" cx="419.75" cy="-738" rx="48.28" ry="18"/>
<text text-anchor="middle" x="419.75" y="-732.95" font-family="Times,serif" font-size="14.00">IllumZO1</text>
</g>
<!-- image__IllumZO1&#45;&gt;CorrectIlluminationApply_4841df99 -->
<g id="edge18" class="edge">
<title>image__IllumZO1&#45;&gt;CorrectIlluminationApply_4841df99</title>
<path fill="none" stroke="black" d="M433.26,-720.41C439.88,-712.28 448,-702.31 455.43,-693.18"/>
<polygon fill="black" stroke="black" points="457.99,-695.58 461.59,-685.62 452.56,-691.16 457.99,-695.58"/>
</g>
<!-- image__MaskedDAPI&#45;&gt;IdentifyPrimaryObjects_4c20beda -->
<g id="edge19" class="edge">
<title>image__MaskedDAPI&#45;&gt;IdentifyPrimaryObjects_4c20beda</title>
<path fill="none" stroke="black" d="M182.26,-287.7C182.05,-280.41 181.8,-271.73 181.57,-263.54"/>
<polygon fill="black" stroke="black" points="185.07,-263.51 181.28,-253.62 178.07,-263.71 185.07,-263.51"/>
</g>
<!-- image__MaskedPhalloidin&#45;&gt;IdentifySecondaryObjects_242958a0 -->
<g id="edge20" class="edge">
<title>image__MaskedPhalloidin&#45;&gt;IdentifySecondaryObjects_242958a0</title>
<path fill="none" stroke="black" d="M360.21,-215.87C342.25,-191.35 309.06,-146.03 287.98,-117.26"/>
<polygon fill="black" stroke="black" points="290.97,-115.41 282.23,-109.41 285.32,-119.55 290.97,-115.41"/>
</g>
<!-- image__OrigDNA -->
<g id="node18" class="node">
<title>image__OrigDNA</title>
<ellipse fill="lightgray" stroke="black" cx="533.75" cy="-738" rx="47.77" ry="18"/>
<text text-anchor="middle" x="533.75" y="-732.95" font-family="Times,serif" font-size="14.00">OrigDNA</text>
</g>
<!-- image__OrigDNA&#45;&gt;CorrectIlluminationApply_4841df99 -->
<g id="edge21" class="edge">
<title>image__OrigDNA&#45;&gt;CorrectIlluminationApply_4841df99</title>
<path fill="none" stroke="black" d="M520.24,-720.41C513.62,-712.28 505.5,-702.31 498.07,-693.18"/>
<polygon fill="black" stroke="black" points="500.94,-691.16 491.91,-685.62 495.51,-695.58 500.94,-691.16"/>
</g>
<!-- image__OrigPhalloidin -->
<g id="node19" class="node">
<title>image__OrigPhalloidin</title>
<ellipse fill="lightgray" stroke="black" cx="664.75" cy="-738" rx="65.68" ry="18"/>
<text text-anchor="middle" x="664.75" y="-732.95" font-family="Times,serif" font-size="14.00">OrigPhalloidin</text>
</g>
<!-- image__OrigPhalloidin&#45;&gt;CorrectIlluminationApply_4841df99 -->
<g id="edge22" class="edge">
<title>image__OrigPhalloidin&#45;&gt;CorrectIlluminationApply_4841df99</title>
<path fill="none" stroke="black" d="M627.16,-723C600.51,-713.08 564.27,-699.59 534.03,-688.33"/>
<polygon fill="black" stroke="black" points="535.63,-685.19 525.03,-684.98 533.19,-691.75 535.63,-685.19"/>
</g>
<!-- image__OrigZO1 -->
<g id="node20" class="node">
<title>image__OrigZO1</title>
<ellipse fill="lightgray" stroke="black" cx="792.75" cy="-738" rx="44.7" ry="18"/>
<text text-anchor="middle" x="792.75" y="-732.95" font-family="Times,serif" font-size="14.00">OrigZO1</text>
</g>
<!-- image__OrigZO1&#45;&gt;CorrectIlluminationApply_4841df99 -->
<g id="edge23" class="edge">
<title>image__OrigZO1&#45;&gt;CorrectIlluminationApply_4841df99</title>
<path fill="none" stroke="black" d="M759.27,-725.64C752.83,-723.63 746.11,-721.66 739.75,-720 689.88,-707.02 634,-695.36 586.61,-686.31"/>
<polygon fill="black" stroke="black" points="587.35,-682.88 576.87,-684.46 586.05,-689.76 587.35,-682.88"/>
</g>
<!-- object__ConfluentRegions&#45;&gt;MaskImage_76b70196 -->
<g id="edge24" class="edge">
<title>object__ConfluentRegions&#45;&gt;MaskImage_76b70196</title>
<path fill="none" stroke="black" d="M278.92,-432.76C263.29,-423.65 243.53,-412.12 226.32,-402.08"/>
<polygon fill="black" stroke="black" points="228.24,-399.15 217.84,-397.13 224.71,-405.2 228.24,-399.15"/>
</g>
<!-- object__ConfluentRegions&#45;&gt;MaskImage_9954d6b5 -->
<g id="edge25" class="edge">
<title>object__ConfluentRegions&#45;&gt;MaskImage_9954d6b5</title>
<path fill="none" stroke="black" d="M322.73,-432.05C330.55,-423.75 340.14,-413.58 348.82,-404.38"/>
<polygon fill="black" stroke="black" points="351.11,-407.05 355.42,-397.38 346.02,-402.25 351.11,-407.05"/>
</g>
<!-- object__Nuclei&#45;&gt;IdentifySecondaryObjects_242958a0 -->
<g id="edge26" class="edge">
<title>object__Nuclei&#45;&gt;IdentifySecondaryObjects_242958a0</title>
<path fill="none" stroke="black" d="M219.27,-145.12C226.95,-136.72 236.57,-126.2 245.28,-116.67"/>
<polygon fill="black" stroke="black" points="247.75,-119.15 251.92,-109.41 242.59,-114.43 247.75,-119.15"/>
</g>
</g>
</svg>
